<?xml version="1.0" standalone="no"?>
<!DOCTYPE svg PUBLIC "-//W3C//DTD SVG 1.1//EN" "http://www.w3.org/Graphics/SVG/1.1/DTD/svg11.dtd" >
<svg xmlns="http://www.w3.org/2000/svg" xmlns:xlink="http://www.w3.org/1999/xlink" version="1.1">
<metadata>
Created by FontForge 20200427 at Mon May 23 21:20:55 2016
 By www
Published by Die Gestalten Verlag 2006, Copyright by Mika Mischler, 2003. All rights reserved. 
</metadata>
<defs>
<font id="TSTARMonoRoundW00-Regular" horiz-adv-x="600" >
  <font-face 
    font-family="TSTARMonoRoundW00-Regular"
    font-weight="400"
    font-stretch="normal"
    units-per-em="1000"
    panose-1="2 0 5 6 4 0 0 2 0 4"
    ascent="800"
    descent="-200"
    x-height="525"
    cap-height="707"
    bbox="-55 -228 661 954"
    underline-thickness="50"
    underline-position="-125"
    unicode-range="U+0020-25CA"
  />
<missing-glyph 
 />
    <glyph glyph-name=".notdef" 
 />
    <glyph glyph-name=".null" horiz-adv-x="0" 
 />
    <glyph glyph-name="nonmarkingreturn" 
 />
    <glyph glyph-name="space" unicode=" " 
 />
    <glyph glyph-name="exclam" unicode="!" 
d="M276 223v474q0 10 7.5 18t17.5 8t18 -8t8 -18v-474q0 -10 -8 -18t-18 -8t-17.5 8t-7.5 18zM339 12h-79v79h79v-79z" />
    <glyph glyph-name="quotedbl" unicode="&#x22;" 
d="M195 572v126q0 13 9 21.5t22 8.5q12 0 21 -8.5t9 -21.5v-126q0 -13 -9 -21.5t-21 -8.5q-13 0 -22 8.5t-9 21.5zM343 572v126q0 13 9 21.5t21 8.5q13 0 22 -8.5t9 -21.5v-126q0 -13 -9 -21.5t-22 -8.5q-12 0 -21 8.5t-9 21.5z" />
    <glyph glyph-name="numbersign" unicode="#" 
d="M60 277q0 9 6.5 16t14.5 7h87l37 153h-77q-9 0 -15.5 6.5t-6.5 15.5t6.5 16t15.5 7h87l39 164q3 9 12 13.5t17 2.5q10 -2 15 -11t3 -18l-36 -151h133l39 164q2 9 11 13.5t17 2.5q11 -3 15.5 -11t2.5 -18l-37 -151h71q8 0 15 -7.5t7 -15.5q0 -9 -7 -15.5t-15 -6.5h-80
l-36 -153h69q8 0 15.5 -7.5t7.5 -15.5q0 -9 -7 -15.5t-16 -6.5h-81l-45 -194q-3 -9 -12.5 -13t-18.5 -2q-7 2 -12.5 11.5t-3.5 17.5l43 180h-133l-46 -194q-3 -9 -12 -13t-18 -2q-8 2 -13 11.5t-3 17.5l42 180h-76q-9 0 -15 6.5t-6 15.5zM254 453l-36 -153h132l37 153h-133z
" />
    <glyph glyph-name="dollar" unicode="$" 
d="M272 -37v37q-79 6 -124.5 56t-45.5 124q0 9 7.5 16.5t17.5 7.5q9 0 16.5 -7.5t7.5 -16.5q0 -54 34 -87.5t87 -40.5v311l-81 47q-37 22 -59.5 63t-22.5 85q0 68 44 111t119 47v39q0 9 6.5 16.5t15.5 7.5q10 0 17 -7.5t7 -16.5v-39q72 -9 120.5 -56t48.5 -113q0 -9 -8 -17
t-17 -8t-16.5 8t-7.5 17q0 53 -33 82.5t-87 34.5v-271l86 -50q50 -29 72 -71t22 -99q0 -76 -49.5 -122t-130.5 -51v-37q0 -9 -7 -17t-17 -8q-9 0 -15.5 7.5t-6.5 17.5zM379 300l-61 37v-286q59 5 94.5 37t35.5 84q0 89 -69 128zM219 451l53 -32v245q-49 -5 -81 -32t-32 -76
q0 -70 60 -105z" />
    <glyph glyph-name="percent" unicode="%" 
d="M575 152q0 -25 -10.5 -52t-38.5 -44.5t-67 -17.5q-54 0 -85.5 31t-31.5 83v99q0 24 10.5 51.5t39 45.5t67.5 18q53 0 84.5 -31.5t31.5 -83.5v-99zM253 468q0 -24 -10.5 -51t-39 -45t-67.5 -18q-25 0 -52.5 10t-45.5 38t-18 66v100q0 24 10.5 51t39 45t66.5 18
q25 0 53 -10t46 -38t18 -66v-100zM176 16l200 691q2 9 11 14t18 2q8 -3 11.5 -11t1.5 -17l-198 -691q-3 -9 -11.5 -13.5t-16.5 -2.5q-7 2 -12.5 10.5t-3.5 17.5zM530 152v99q0 20 -8.5 37t-26 24.5t-36.5 7.5q-33 0 -52.5 -18.5t-19.5 -50.5v-99q0 -20 8.5 -37.5t26.5 -25
t37 -7.5q33 0 52 19t19 51zM207 468l1 100q0 19 -8.5 36t-26.5 24.5t-37 7.5q-33 0 -52 -18t-19 -50v-100q0 -19 8.5 -36t26 -24.5t36.5 -7.5q33 0 52 18t19 50z" />
    <glyph glyph-name="ampersand" unicode="&#x26;" 
d="M499 119l-57 49q-4 -31 -17 -61.5t-40.5 -56.5t-64 -36.5t-66.5 -10.5q-58 0 -101 22.5t-67.5 65t-24.5 106.5q0 117 95 175l31 17l-40 33q-63 57 -63 129q0 42 16.5 74t43.5 52t59.5 28.5t59.5 8.5q28 0 60 -8t64 -31t48.5 -58.5t16.5 -72.5q0 -9 -7.5 -17t-16.5 -8
t-16.5 8t-7.5 17q-1 54 -41 86t-100 32q-61 0 -95 -29t-34 -84q0 -27 10 -49.5t45 -51.5l342 -294q6 -5 6.5 -16t-4.5 -17t-16 -6.5t-18 4.5zM396 201v6l-171 149l-44 -26q-27 -15 -43.5 -40t-21.5 -50t-5 -45q0 -49 19 -81t52 -47t72 -15q38 0 72 16t52 51.5t18 81.5z" />
    <glyph glyph-name="quotesingle" unicode="'" 
d="M270 572v126q0 13 8.5 21.5t21.5 8.5t21.5 -8.5t8.5 -21.5v-126q0 -13 -8.5 -21.5t-21.5 -8.5t-21.5 8.5t-8.5 21.5z" />
    <glyph glyph-name="parenleft" unicode="(" 
d="M288 752l28 27q8 7 18 7t17 -8q6 -8 5.5 -18.5t-7.5 -17.5q-29 -29 -40 -50q-15 -28 -15 -73v-526q0 -44 15 -73q9 -21 33 -43l7 -7q7 -7 6 -18.5t-8 -17.5q-7 -5 -17 -5t-17 6l-25 25q-20 22 -32.5 48.5t-12.5 78.5v538q0 41 9.5 69.5t35.5 57.5z" />
    <glyph glyph-name="parenright" unicode=")" 
d="M290 773l22 -21q26 -29 35.5 -57.5t9.5 -69.5v-538q0 -42 -9.5 -70t-35.5 -57l-25 -25q-6 -6 -16.5 -6.5t-17.5 5.5q-8 7 -8.5 18t6.5 18l7 7q24 22 33 43q15 29 15 73v526q0 41 -15 73q-14 24 -40 50q-7 7 -8 18t6 18q8 8 20 6t21 -11z" />
    <glyph glyph-name="asterisk" unicode="*" 
d="M445 478l-21 -37l-106 63l4 -123h-44l2 124l-103 -65l-22 38l109 59l-109 58l22 37l103 -64l-2 124h44l-4 -124l106 64l21 -37l-109 -58z" />
    <glyph glyph-name="plus" unicode="+" 
d="M84 288q0 10 7 17t16 7h168v162q0 10 6.5 17t16.5 7t16.5 -7t6.5 -17v-162h171q9 0 16 -7t7 -17q0 -9 -7 -16t-16 -7h-171v-175q0 -10 -6.5 -17t-16.5 -7t-16.5 7t-6.5 17v175h-168q-9 0 -16 7t-7 16z" />
    <glyph glyph-name="comma" unicode="," 
d="M382 95l-129 -206h-33l76 206h86z" />
    <glyph glyph-name="hyphen" unicode="-" 
d="M154 272q0 9 7 16t17 7h243q10 0 17 -7t7 -16q0 -10 -7 -17t-17 -7h-243q-10 0 -17 7t-7 17z" />
    <glyph glyph-name="period" unicode="." 
d="M336 13h-73v82h73v-82z" />
    <glyph glyph-name="slash" unicode="/" 
d="M149 -20l254 779q3 9 13 14t19 2q9 -4 14 -13t2 -18l-254 -778q-3 -10 -13.5 -15t-18.5 -2q-9 3 -14 12.5t-2 18.5z" />
    <glyph glyph-name="zero" unicode="0" 
d="M480 183q0 -24 -6.5 -50.5t-19.5 -49t-34 -40.5t-52 -29t-71 -11q-39 0 -69.5 11t-53.5 31.5t-39 57t-16 81.5v352q0 23 7.5 53.5t28 59t57 47t89.5 18.5q39 0 69.5 -11t54 -31.5t39.5 -57t16 -79.5v-352zM431 185l1 348q0 48 -20 77.5t-50.5 41.5t-60.5 12t-61 -12
t-51 -41.5t-20 -77.5v-348q0 -39 15 -68.5t46 -46t71 -16.5q56 0 93 32.5t37 98.5z" />
    <glyph glyph-name="one" unicode="1" 
d="M148 681q0 10 7.5 18t17.5 8h150v-644h143q10 0 18 -8t8 -18t-8 -17t-18 -7h-333q-11 0 -18 7t-7 17t7.5 18t19.5 8h140v594h-102q-10 0 -17.5 7t-7.5 17z" />
    <glyph glyph-name="two" unicode="2" 
d="M100 547q0 25 10.5 54t33.5 54.5t60 42t87 16.5q85 0 138.5 -52.5t53.5 -134.5q0 -53 -35 -100.5t-144 -114.5q-77 -48 -103.5 -73t-39 -49t-12.5 -51v-76h326q10 0 17.5 -8t7.5 -18t-7.5 -17t-17.5 -7h-375v124q0 73 57 130q26 25 113 79q59 37 95 65t52 57t16 56
q0 67 -38 104t-104 37q-30 0 -62 -12t-54 -38t-26 -68q-1 -10 -8.5 -17t-16.5 -7q-10 0 -17 7t-7 17z" />
    <glyph glyph-name="three" unicode="3" 
d="M112 682q0 10 7.5 18t17.5 8h336v-52l-159 -240q52 -5 91.5 -27t62.5 -62t23 -87v-53q0 -34 -11.5 -64.5t-31 -56.5t-57 -45t-89.5 -19q-40 0 -72.5 11t-61 35t-44.5 64t-16 75q0 9 7.5 17t17.5 8q9 0 17 -8t8 -17q0 -50 22 -80t54.5 -42.5t63.5 -12.5t64.5 13.5t56 43.5
t22.5 78v51q0 39 -17 68t-51 45.5t-75 16.5h-40v48l160 241h-281q-10 0 -17.5 8t-7.5 17z" />
    <glyph glyph-name="four" unicode="4" 
d="M116 279l157 423q3 9 13.5 13.5t18.5 1.5q9 -4 13 -13t1 -18l-155 -421h269v260q0 10 7 17.5t17 7.5t17.5 -7.5t7.5 -17.5l1 -505q0 -11 -7 -18t-18 -7q-10 0 -17 7.5t-7 17.5v196h-318v63z" />
    <glyph glyph-name="five" unicode="5" 
d="M103 186q0 9 7.5 17t17.5 8t17.5 -8t7.5 -17q0 -61 40.5 -97t105.5 -36q26 0 60.5 12t61 45t26.5 80v47q0 25 -12.5 58t-47.5 56.5t-86 23.5h-167v65l18 266h299q9 0 17 -8t8 -18t-8 -17t-17 -7h-253l-15 -230h120q28 0 60 -9t65 -34t50.5 -64t17.5 -80v-48
q0 -30 -10.5 -62t-35 -60t-63.5 -47t-88 -19q-29 0 -62 8.5t-66.5 33t-50.5 63t-17 78.5z" />
    <glyph glyph-name="six" unicode="6" 
d="M480 545q0 -10 -8 -17.5t-18 -7.5q-9 0 -16 7.5t-8 17.5q-3 24 -12 44t-24 35.5t-41.5 27.5t-53.5 12q-18 0 -46 -8t-51 -27t-33 -44.5t-10 -52.5v-144q25 29 64 43t80 14q39 0 75 -12.5t61 -39.5t38.5 -61t13.5 -68v-83q0 -25 -9.5 -55t-31.5 -58t-60 -46.5t-91 -18.5
q-52 0 -89.5 18.5t-59.5 46.5t-31.5 58.5t-9.5 55.5v352q0 25 10 55.5t32 59t60.5 47t91.5 18.5q36 0 70 -11.5t57.5 -35.5t36 -56t13.5 -66zM440 184l1 79q0 28 -9 50.5t-26 40t-46.5 29t-60.5 11.5q-30 0 -63 -13t-55 -43t-22 -78v-76q0 -39 16 -68.5t49.5 -46t74.5 -16.5
q42 0 75 16.5t49.5 46t16.5 68.5z" />
    <glyph glyph-name="seven" unicode="7" 
d="M92 680q0 11 7 19t17 8h392v-49l-237 -641q-4 -10 -13.5 -14.5t-19.5 -0.5q-9 4 -13 13t-1 19l232 622h-340q-10 0 -17 7t-7 17z" />
    <glyph glyph-name="eight" unicode="8" 
d="M497 191q0 -27 -10 -58.5t-32.5 -61t-62.5 -49t-95 -19.5q-40 0 -73 11.5t-58.5 33.5t-44.5 61t-19 83v16q0 28 9.5 58.5t31 58t55.5 44.5q-27 13 -48 37.5t-30.5 56.5t-9.5 60v13q0 24 9.5 54t31 58.5t59.5 47t91 18.5q26 0 60 -7.5t66 -34t47.5 -65t15.5 -72.5v-13
q0 -24 -12 -57t-34.5 -57t-45.5 -37q29 -16 52 -42.5t35 -60.5t12 -61v-16zM449 194v11q0 25 -9 53.5t-32.5 48.5t-52.5 28t-58 8q-28 0 -62.5 -12.5t-58 -45.5t-23.5 -80v-11q0 -51 23 -82t57.5 -43.5t68.5 -12.5q33 0 67 12.5t57 43.5t23 82zM442 524v9q0 39 -16.5 68
t-50 46t-74.5 17q-31 0 -64 -12t-55 -41.5t-22 -77.5v-9q0 -39 16.5 -68t49.5 -45.5t76 -16.5q28 0 61 11t56 42t23 77z" />
    <glyph glyph-name="nine" unicode="9" 
d="M120 173q0 11 8 17.5t18 6.5q9 0 16 -7t8 -17q3 -33 20.5 -61t50 -43t60.5 -15q31 0 68 16.5t54.5 48t17.5 67.5v144q-47 -57 -144 -57q-39 0 -75 12.5t-61 39.5t-38.5 61t-13.5 68v83q0 24 9.5 54t31.5 58.5t60 47t91 18.5q64 0 106 -26t62.5 -66.5t20.5 -86.5v-352
q0 -25 -9.5 -55.5t-32 -59t-60.5 -47t-91 -18.5q-60 0 -99 24.5t-58 63t-20 81.5zM160 534l-1 -79q0 -47 22.5 -76.5t55.5 -42t64 -12.5q18 0 42.5 6t46.5 20.5t36.5 41.5t14.5 66v76q0 39 -16 68t-49.5 46t-74.5 17q-31 0 -64 -12t-55 -41.5t-22 -77.5z" />
    <glyph glyph-name="colon" unicode=":" 
d="M336 278h-72v82h72v-82zM336 12h-72v82h72v-82z" />
    <glyph glyph-name="semicolon" unicode=";" 
d="M386 93l-121 -183h-48l78 183h91zM374 278h-72v82h72v-82z" />
    <glyph glyph-name="less" unicode="&#x3c;" 
d="M222 275l218 -220q7 -7 7 -19t-7 -18q-8 -8 -18.5 -7.5t-17.5 8.5l-257 256l254 253q7 8 17.5 8.5t18.5 -7.5q7 -6 6.5 -18t-6.5 -19z" />
    <glyph glyph-name="equal" unicode="=" 
d="M104 380q0 9 7 17t17 8h343q9 0 17 -8t8 -17t-8 -16t-17 -7h-343q-10 0 -17 7t-7 16zM104 233q0 9 7 16.5t17 7.5h343q9 0 17 -7.5t8 -16.5q0 -10 -8 -17t-17 -7h-343q-10 0 -17 7t-7 17z" />
    <glyph glyph-name="greater" unicode="&#x3e;" 
d="M159 55l218 220l-215 217q-6 7 -6 19t6 18q8 8 18.5 7.5t17.5 -8.5l254 -253l-257 -256q-7 -8 -17.5 -8.5t-18.5 7.5q-7 6 -7 18t7 19z" />
    <glyph glyph-name="question" unicode="?" 
d="M320 12h-79v79h79v-79zM300 714q28 0 60 -9t61 -31.5t49.5 -59.5t20.5 -87q0 -102 -93 -158q-62 -38 -79 -68.5t-17 -69.5v-35q0 -10 -8 -17.5t-17 -7.5q-11 0 -18 7t-7 18v32q0 110 92 163q51 30 67 48.5t23.5 38.5t7.5 46q0 33 -11 59.5t-30.5 45t-46.5 27.5t-54 9
q-24 0 -56.5 -11.5t-58 -41t-26.5 -65.5q0 -10 -7.5 -17.5t-16.5 -7.5q-10 0 -18 7.5t-7 17.5q1 25 11.5 53t37 56.5t65 43t76.5 14.5z" />
    <glyph glyph-name="at" unicode="@" 
d="M442 20v45q-36 -35 -89 -33q-39 0 -68.5 16t-45 42.5t-15.5 64.5v166q0 30 13 59t46 47t73 18q18 0 43.5 -9t42.5 -24v43q0 45 -22 74.5t-55.5 43t-63.5 13.5q-31 0 -64.5 -12t-55.5 -41.5t-22 -77.5v-393q0 -36 15.5 -66.5t49 -46.5t65.5 -17q10 0 17.5 -8t7.5 -18
q-1 -10 -8 -16.5t-18 -6.5q-38 2 -72.5 15.5t-58 39.5t-36 58.5t-12.5 64.5v397q0 24 9.5 54t31.5 58t60 46.5t91 18.5q39 0 75 -12.5t61.5 -39t39 -60.5t13.5 -66v-437q0 -10 -8 -17t-17 -7t-16 7t-7 17zM442 157l1 163q0 19 -10 38t-33 29.5t-46 10.5q-34 0 -55 -18
t-25 -36.5t-4 -26.5v-159q0 -19 8.5 -38.5t29.5 -31t45 -11.5t46.5 10.5t32.5 30t10 39.5z" />
    <glyph glyph-name="A" unicode="A" 
d="M418 265l-88 393h-60l-90 -393h238zM367 707l161 -678q3 -10 -3 -19t-15 -11q-10 -2 -19.5 3t-11.5 16l-48 197h-262l-48 -197q-6 -22 -30 -19q-11 2 -16 11t-3 20l159 677h136z" />
    <glyph glyph-name="B" unicode="B" 
d="M494 190q0 -34 -12 -67t-35.5 -59.5t-59.5 -39t-75 -12.5h-206v695h201q52 0 91.5 -19.5t61.5 -60.5t22 -94v-12q0 -27 -8.5 -58.5t-27 -55t-42.5 -36.5q45 -20 67.5 -58t22.5 -99v-24zM444 193v20q0 66 -34.5 99t-92.5 33h-161v-283h156q31 0 61.5 12t50.5 41.5t20 77.5
zM432 523v9q0 65 -34.5 95.5t-90.5 30.5h-151v-263h157q119 0 119 128z" />
    <glyph glyph-name="C" unicode="C" 
d="M441 185q0 9 7 17t16 8q10 0 18 -8t8 -17q0 -26 -9.5 -57t-32 -59.5t-60.5 -47t-91 -18.5q-39 0 -75 12.5t-61 39.5t-38.5 61t-13.5 68v352q0 24 9.5 54t31.5 58.5t60 47t91 18.5q38 0 73.5 -12t61 -37.5t39.5 -59.5t14 -68q0 -10 -8 -17t-17 -7t-16 7t-7 17
q0 38 -16.5 66.5t-50 45t-73.5 16.5q-31 0 -64.5 -12t-55.5 -41.5t-22 -77.5v-350q0 -39 16.5 -68.5t50 -46t75.5 -16.5q31 0 63.5 12t54.5 41.5t22 78.5z" />
    <glyph glyph-name="D" unicode="D" 
d="M491 193q0 -24 -7.5 -55.5t-27.5 -60t-56 -47t-87 -18.5h-205v696h201q39 0 75 -12.5t59.5 -39t35.5 -59.5t12 -67v-337zM440 194l1 333q0 39 -15 68t-46 46t-71 17h-151v-596h153q56 0 92.5 33t36.5 99z" />
    <glyph glyph-name="E" unicode="E" 
d="M160 356v-295h305q9 0 17 -8t8 -17t-8 -16.5t-17 -7.5h-356v695h356q9 0 17 -8t8 -17t-8 -16.5t-17 -7.5h-305v-253h282q9 0 16.5 -8t7.5 -17q0 -8 -8 -16t-16 -8h-282z" />
    <glyph glyph-name="F" unicode="F" 
d="M109 707h356q9 0 17 -8t8 -17t-8 -16.5t-17 -7.5h-306v-255h283q9 0 16.5 -8t7.5 -17q0 -8 -8 -16t-16 -8h-282v-342h-51v695z" />
    <glyph glyph-name="G" unicode="G" 
d="M440 535q0 39 -16 68t-49.5 45.5t-74.5 16.5q-31 0 -64.5 -12t-55.5 -41.5t-22 -77.5v-350q0 -39 16.5 -68.5t50 -46t75.5 -16.5q31 0 64 12t55 41.5t22 77.5v150h-143q-9 0 -16.5 8t-7.5 17t7.5 16.5t16.5 7.5h193v-200q0 -25 -10 -55.5t-32.5 -59t-61 -47t-91.5 -18.5
q-39 0 -75 12.5t-61 39.5t-38.5 61t-13.5 68v352q0 24 9.5 54t31.5 58.5t60 47t91 18.5q39 0 70.5 -11t59 -34.5t43 -62t15.5 -71.5q0 -9 -8 -17t-17 -8t-16 8t-7 17z" />
    <glyph glyph-name="H" unicode="H" 
d="M103 20v679q0 10 7 17.5t17 7.5t17.5 -7.5t7.5 -17.5v-296h296v296q0 10 7 17.5t17 7.5t17.5 -7.5t7.5 -17.5v-679q0 -10 -7.5 -17.5t-17.5 -7.5t-17 7t-7 18v334h-296v-334q0 -10 -7.5 -17.5t-17.5 -7.5t-17 7t-7 18z" />
    <glyph glyph-name="I" unicode="I" 
d="M130 681q0 10 7 18t17 8h290q9 0 17 -8t8 -18t-8 -17t-17 -7h-121v-595h121q9 0 17 -8t8 -18t-8 -17t-17 -7h-290q-10 0 -17 7t-7 17t7 18t17 8h121v595h-121q-10 0 -17 7t-7 17z" />
    <glyph glyph-name="J" unicode="J" 
d="M129 183q0 10 7 17.5t17 7.5t18 -7.5t8 -17.5q0 -47 17 -76t45 -41.5t59 -12.5q33 0 61 13t44.5 39.5t16.5 70.5v481h-210q-10 0 -17 7t-7 17t7 18t17 8h259v-525q0 -84 -45.5 -131.5t-126.5 -47.5q-80 0 -125 48t-45 132z" />
    <glyph glyph-name="K" unicode="K" 
d="M162 332l253 372q5 8 17 9.5t19 -3.5t9 -15t-3 -18l-188 -278l219 -366q5 -9 2 -20t-11 -15q-9 -5 -19 -2t-17 13l-205 346l-76 -112v-223q0 -10 -8 -17.5t-17 -7.5q-11 0 -18 7t-7 18v679q0 10 7.5 17.5t17.5 7.5q9 0 17 -7.5t8 -17.5v-367z" />
    <glyph glyph-name="L" unicode="L" 
d="M464 13h-355v686q0 10 7.5 17.5t17.5 7.5q9 0 17 -7.5t8 -17.5v-636h305q10 0 18 -8t8 -18t-8 -17t-18 -7z" />
    <glyph glyph-name="M" unicode="M" 
d="M482 20v634h-9l-149 -420h-48l-149 420h-9v-634q0 -10 -8 -18t-17 -8q-10 0 -18 8t-8 18v687h93l140 -397l140 397h93v-687q0 -10 -8 -18t-18 -8q-9 0 -17 8t-8 18z" />
    <glyph glyph-name="N" unicode="N" 
d="M433 699q0 10 8 17.5t17 7.5q10 0 18 -7.5t8 -17.5v-688h-97l-211 643h-9v-635q0 -10 -8 -18t-17 -8q-10 0 -18 8t-8 18v688h94l214 -649h9v641z" />
    <glyph glyph-name="O" unicode="O" 
d="M491 183q0 -25 -10 -55.5t-32.5 -59t-61 -47t-91.5 -18.5q-39 0 -75 12.5t-61 39.5t-38.5 61t-13.5 68v352q0 24 9.5 54t31.5 58.5t60 47t91 18.5q39 0 71 -11t57 -32t44 -58.5t19 -77.5v-352zM440 184l1 350q0 39 -16.5 68t-50 46t-74.5 17q-31 0 -64.5 -12t-55.5 -41.5
t-22 -77.5v-350q0 -39 16.5 -68.5t50 -46t75.5 -16.5q41 0 74.5 16.5t49.5 46t16 68.5z" />
    <glyph glyph-name="P" unicode="P" 
d="M108 20v687h201q39 0 75 -12.5t59.5 -39t35.5 -59.5t12 -67v-53q0 -24 -7.5 -55t-27.5 -59.5t-56 -47t-87 -18.5h-154v-276q0 -10 -8 -18t-17 -8q-10 0 -18 8t-8 18zM441 477v50q0 39 -15 68t-46 46t-71 17h-151v-313h153q31 0 61 12.5t49.5 42t19.5 77.5z" />
    <glyph glyph-name="Q" unicode="Q" 
d="M278 -88v92q-23 3 -54 13.5t-57 34.5t-42.5 59t-16.5 73v352q0 24 9.5 54t31.5 58.5t60 47t91 18.5q39 0 71 -11t57 -32t44 -58.5t19 -77.5v-352q0 -20 -8.5 -48t-28 -55.5t-52.5 -47.5t-78 -27v-93q0 -9 -6.5 -16t-16.5 -7t-16.5 7t-6.5 16zM277 186q0 9 6.5 16t16.5 7
t16.5 -7t6.5 -16v-130q35 6 61.5 22t41 42t14.5 65l1 349q0 39 -16.5 68t-50 46t-74.5 17q-31 0 -64.5 -12t-55.5 -41.5t-22 -77.5v-349q0 -106 119 -130v131z" />
    <glyph glyph-name="R" unicode="R" 
d="M435 10l-133 306h-143v-296q0 -10 -8 -18t-17 -8q-10 0 -18 8t-8 18v687h201q26 0 60 -7.5t64.5 -34t44 -64t13.5 -71.5v-34q0 -35 -15 -72t-45 -64.5t-77 -40.5l126 -290q4 -10 0 -19.5t-13 -12.5q-8 -3 -18 0.5t-14 12.5zM440 497v30q0 48 -20 77.5t-50.5 41.5
t-60.5 12h-151v-293h153q56 0 92.5 33t36.5 99z" />
    <glyph glyph-name="S" unicode="S" 
d="M438 547q0 55 -42 86.5t-101 31.5q-24 0 -56 -8.5t-56 -34t-24 -66.5q0 -16 6.5 -36.5t24 -41t39.5 -32.5l169 -100q49 -30 74.5 -74.5t25.5 -98.5q0 -49 -25.5 -90.5t-74 -62.5t-102.5 -21q-32 0 -66 9t-62 31t-47 57.5t-19 83.5q0 9 7.5 16.5t17.5 7.5q9 0 16.5 -7.5
t7.5 -16.5q0 -46 23.5 -76.5t57.5 -41.5t63 -11q42 0 75.5 12.5t55.5 39.5t22 69q0 41 -21 77t-58 57l-171 100q-19 11 -40 32.5t-35 54.5t-14 65q0 69 52 114t134 45q86 0 139 -47t53 -123q0 -9 -8 -17t-17 -8t-16.5 7.5t-7.5 17.5z" />
    <glyph glyph-name="T" unicode="T" 
d="M276 20v636h-170q-9 0 -17 8t-8 17q0 10 8 18t17 8h388q9 0 17 -8t8 -18q0 -9 -8 -17t-17 -8h-169v-636q0 -10 -7.5 -17.5t-17.5 -7.5t-17 7t-7 18z" />
    <glyph glyph-name="U" unicode="U" 
d="M441 699q0 10 7 17.5t17 7.5t18 -7.5t8 -17.5v-516q0 -25 -10 -55.5t-32.5 -59t-61 -47t-91.5 -18.5q-39 0 -75 12.5t-61 39.5t-38.5 61t-13.5 68v515q0 10 7.5 17.5t17.5 7.5q9 0 17 -7.5t8 -17.5v-515q0 -39 16.5 -68.5t50 -46t75.5 -16.5q31 0 64 12t55 41.5t22 77.5
v515z" />
    <glyph glyph-name="V" unicode="V" 
d="M149 700l143 -639h12l146 640q2 11 11.5 16.5t19.5 3.5t16 -12t3 -21l-156 -676h-87l-158 676q-3 11 3 21t16 12q9 2 19 -4.5t12 -16.5z" />
    <glyph glyph-name="W" unicode="W" 
d="M578 694l-103 -684h-83l-81 386l-80 -386h-83l-103 683q-1 11 6 20.5t17 10.5q11 2 20 -4.5t10 -18.5l90 -638h7l88 428h57l88 -428h6l91 640q1 11 11 17.5t20 4.5q10 -1 16.5 -11t5.5 -20z" />
    <glyph glyph-name="X" unicode="X" 
d="M439 15l-141 297l-141 -296q-5 -10 -16 -14t-21 0t-13.5 15t1.5 21l160 324l-157 318q-5 10 -1 21t13 16t20.5 1.5t16.5 -13.5l138 -293l138 293q5 10 16 13.5t21 -1.5t13.5 -15.5t-1.5 -21.5l-157 -318l160 -324q5 -9 1.5 -20t-13.5 -16t-21 -1t-16 14z" />
    <glyph glyph-name="Y" unicode="Y" 
d="M275 20v243l-173 419q-4 9 0 19.5t13 14.5q10 4 20.5 -0.5t14.5 -13.5l150 -374l148 374q4 9 14.5 13.5t20.5 0.5q9 -4 13 -14t0 -20l-172 -419v-243q0 -10 -7.5 -17.5t-17.5 -7.5t-17 7t-7 18z" />
    <glyph glyph-name="Z" unicode="Z" 
d="M101 681q0 10 7 18t17 8h339v-48l-307 -596h316q10 0 17.5 -8t7.5 -18t-7.5 -17t-17.5 -7h-370v50l305 594h-283q-10 0 -17 7t-7 17z" />
    <glyph glyph-name="bracketleft" unicode="[" 
d="M352 -71h-126v839h126q8 0 15 -7t7 -15q0 -9 -6.5 -15.5t-15.5 -6.5h-79v-750h79q8 0 15 -7t7 -16q0 -8 -7 -15t-15 -7z" />
    <glyph glyph-name="backslash" unicode="\" 
d="M196 760l254 -780q3 -9 -1.5 -18t-14.5 -13q-9 -3 -19 2.5t-13 14.5l-254 778q-3 9 2.5 18.5t14.5 12.5q10 3 19 -1.5t12 -13.5z" />
    <glyph glyph-name="bracketright" unicode="]" 
d="M374 -71h-126q-8 0 -15 7t-7 15q0 9 7 16t15 7h79v750h-79q-9 0 -15.5 6.5t-6.5 15.5q0 8 7 15t15 7h126v-839z" />
    <glyph glyph-name="asciicircum" unicode="^" 
d="M400 443l-101 189l-103 -190q-4 -8 -13.5 -9.5t-17.5 1.5q-7 4 -10 13.5t1 16.5l118 219h50l119 -220q4 -8 0 -17.5t-12 -13.5q-7 -3 -17 0.5t-14 10.5z" />
    <glyph glyph-name="underscore" unicode="_" 
d="M28 -128q0 8 6 14t15 6h501q9 0 15.5 -6t6.5 -14t-6.5 -15t-15.5 -7h-501q-9 0 -15 7t-6 15z" />
    <glyph glyph-name="grave" unicode="`" 
d="M363 593h-44l-85 141h61z" />
    <glyph glyph-name="a" unicode="a" 
d="M437 517q0 9 7 17t16 8t17 -8t8 -17v-497q0 -10 -8 -17t-17 -7t-16 7t-7 17v44q-25 -31 -62 -46.5t-75 -15.5q-86 0 -136 49t-50 133v169q0 82 51 131.5t135 49.5q27 0 56 -8.5t49.5 -22.5t31.5 -28v42zM436 184v169q0 35 -14 65t-44 47.5t-78 17.5q-63 0 -98.5 -34.5
t-35.5 -95.5v-169q0 -36 13 -65.5t43 -47t78 -17.5q28 0 60.5 10.5t54 42t21.5 77.5z" />
    <glyph glyph-name="b" unicode="b" 
d="M116 21v676q0 10 7 17.5t17 7.5q9 0 17 -7.5t8 -17.5v-217q23 26 60.5 40t74.5 14q85 0 134.5 -48.5t49.5 -132.5v-169q0 -83 -50 -132.5t-134 -49.5q-34 0 -71.5 14t-62.5 39v-34q0 -10 -8 -18t-17 -8q-10 0 -17.5 8t-7.5 18zM433 184v169q0 36 -13 65.5t-43 47
t-77 17.5q-63 0 -98.5 -34.5t-35.5 -95.5v-169q0 -36 13.5 -65.5t43 -47t77.5 -17.5q62 0 97.5 34.5t35.5 95.5z" />
    <glyph glyph-name="c" unicode="c" 
d="M457 341q-10 0 -17 7t-7 17q-4 57 -38 87.5t-95 30.5q-63 0 -98.5 -34.5t-35.5 -95.5v-169q0 -36 13 -65.5t43 -47t78 -17.5q60 0 95 31t38 86q0 9 8 17.5t17 8.5t17 -8.5t9 -17.5q-3 -37 -21.5 -76t-61.5 -66t-101 -27q-86 0 -135.5 49t-49.5 133v169q0 82 50.5 131.5
t134.5 49.5q81 0 131 -45.5t53 -122.5q0 -9 -8 -17t-19 -8z" />
    <glyph glyph-name="d" unicode="d" 
d="M166 353v-169q0 -61 35.5 -95.5t97.5 -34.5q48 0 77.5 17.5t43 47t13.5 65.5v169q0 61 -35.5 95.5t-98.5 34.5q-47 0 -77 -17.5t-43 -47t-13 -65.5zM483 697v-676q0 -10 -7.5 -18t-17.5 -8q-9 0 -17 8t-8 18v34q-12 -13 -32.5 -25.5t-48.5 -20t-53 -7.5q-84 0 -134 49.5
t-50 132.5v169q0 84 49.5 132.5t134.5 48.5q37 0 74.5 -14t60.5 -40v217q0 10 8 17.5t17 7.5q10 0 17 -7.5t7 -17.5z" />
    <glyph glyph-name="e" unicode="e" 
d="M484 353v-97h-318v-72q0 -36 13 -65.5t43 -47t78 -17.5q60 0 95 31t38 86q0 9 8 17.5t17 8.5t17.5 -8t8.5 -18q-7 -76 -56.5 -122.5t-127.5 -46.5q-86 0 -135 48.5t-49 133.5v169q0 82 50 131.5t134 49.5q85 0 134.5 -48.5t49.5 -132.5zM434 308v45q0 35 -13.5 65
t-43.5 47.5t-77 17.5q-63 0 -98.5 -34.5t-35.5 -95.5v-45h268z" />
    <glyph glyph-name="f" unicode="f" 
d="M256 21v396h-84q-9 0 -16 7t-7 17q0 9 7 16.5t16 7.5h84v108q0 69 33.5 101t107.5 32h56q9 0 16.5 -8t7.5 -17t-7.5 -16t-16.5 -7h-63q-23 0 -43.5 -8t-30.5 -25.5t-10 -39.5v-120h170q9 0 16.5 -7.5t7.5 -16.5q0 -10 -7.5 -17t-16.5 -7h-170v-396q0 -10 -7.5 -17.5
t-17.5 -7.5t-17.5 7.5t-7.5 17.5z" />
    <glyph glyph-name="g" unicode="g" 
d="M434 516q0 10 7 18t17 8t18 -8t8 -18v-563q0 -81 -37 -121t-115 -40h-29q-10 0 -17 7t-7 16q0 10 7 17t17 7h37q30 0 52.5 13t31.5 37t9 48v118q-25 -25 -62 -39t-71 -14q-86 0 -135.5 49t-49.5 133v169q0 82 50.5 131.5t134.5 49.5q27 0 55 -7t48 -19t31 -25v33z
M433 184v169q0 36 -13.5 65.5t-43 47t-76.5 17.5q-63 0 -98.5 -34.5t-35.5 -95.5v-169q0 -36 13 -65.5t43 -47t78 -17.5q62 0 97.5 34.5t35.5 95.5z" />
    <glyph glyph-name="h" unicode="h" 
d="M433 21v332q0 36 -13 65.5t-43 47t-77 17.5q-27 0 -59 -11.5t-54 -41t-22 -67.5v-342q0 -10 -8 -18t-17 -8q-10 0 -18 8t-8 18v676q0 10 7.5 17.5t17.5 7.5q9 0 17 -7.5t8 -17.5v-218q12 14 32 27t48.5 20.5t55.5 7.5q85 0 135 -48.5t50 -132.5v-332q0 -10 -8.5 -18
t-18.5 -8q-9 0 -17 8t-8 18z" />
    <glyph glyph-name="i" unicode="i" 
d="M150 36q0 10 7 17t16 7h138v420h-138q-9 0 -16 7t-7 16q0 10 7 17t16 7h189v-467h104q9 0 16 -7t7 -17t-7 -16.5t-16 -6.5h-293q-9 0 -16 6.5t-7 16.5zM371 630h-69v84h69v-84z" />
    <glyph glyph-name="j" unicode="j" 
d="M391 527v-601q0 -71 -36.5 -102.5t-104.5 -31.5h-77q-9 0 -16.5 7.5t-7.5 16.5t7.5 17t16.5 8h97q16 0 34.5 9.5t27.5 27t9 35.5v567h-197q-10 0 -17 7t-7 16q0 10 7 17t17 7h247zM399 630h-68v84h68v-84z" />
    <glyph glyph-name="k" unicode="k" 
d="M415 10l-149 264l-77 -97v-156q0 -10 -8 -17.5t-18 -7.5t-17.5 7.5t-7.5 17.5v677q0 10 7.5 17.5t17.5 7.5t18 -7.5t8 -17.5v-443l213 267q6 7 17 8.5t18 -4.5q7 -7 8.5 -16.5t-4.5 -17.5l-141 -177l159 -280q5 -10 3 -20t-11 -15t-20 -2t-16 12z" />
    <glyph glyph-name="l" unicode="l" 
d="M278 707v-647h144q10 0 17 -7t7 -17t-7 -16.5t-17 -6.5h-331q-10 0 -17 6.5t-7 16.5t7 17t17 7h138v600h-99q-10 0 -17 7t-7 16q0 10 7 17t17 7h148z" />
    <glyph glyph-name="m" unicode="m" 
d="M493 20v365q0 55 -17.5 77.5t-52.5 22.5q-50 0 -75.5 -37t-25.5 -92v-336q0 -10 -7.5 -18t-17.5 -8t-17.5 8t-7.5 18v368q0 40 -11.5 62t-26 28.5t-29.5 6.5q-96 0 -96 -129v-336q0 -10 -7.5 -18t-17.5 -8t-17.5 8t-7.5 18v498q0 10 7 18t17 8t17.5 -8t7.5 -18l1 -32
q16 22 42.5 35t55.5 13q26 0 54.5 -15.5t46.5 -51.5q9 16 25.5 32t42 25.5t50.5 9.5q116 0 116 -145v-369q0 -10 -7.5 -17.5t-17.5 -7.5t-17 7t-7 18z" />
    <glyph glyph-name="n" unicode="n" 
d="M434 21v332q0 36 -13.5 65.5t-43 47t-76.5 17.5q-59 0 -97.5 -36t-38.5 -92v-334q0 -10 -8 -17.5t-17 -7.5q-11 0 -18 7t-7 18v495q0 10 7.5 18t17.5 8q9 0 17 -8t8 -18v-49q7 15 27 31t51.5 26t57.5 10q85 0 134 -48.5t49 -132.5v-332q0 -10 -8 -17.5t-18 -7.5t-17 7.5
t-7 17.5z" />
    <glyph glyph-name="o" unicode="o" 
d="M484 184q0 -83 -50 -132t-134 -49q-86 0 -135.5 48.5t-49.5 132.5v169q0 82 50.5 131.5t134.5 49.5q85 0 134.5 -48.5t49.5 -132.5v-169zM433 184v169q0 36 -13 65.5t-43 47t-77 17.5q-63 0 -98.5 -34.5t-35.5 -95.5v-169q0 -36 13 -66t43 -47.5t78 -17.5q62 0 97.5 35
t35.5 96z" />
    <glyph glyph-name="p" unicode="p" 
d="M117 516q0 10 7 18t17 8q9 0 17 -8t8 -18v-35q38 53 134 53q84 0 134 -49.5t50 -131.5v-169q0 -85 -49 -133.5t-135 -48.5q-37 0 -72.5 13.5t-61.5 42.5v-258q0 -9 -8 -17.5t-17 -8.5q-10 0 -17 8t-7 18v716zM434 184v169q0 61 -35.5 95.5t-98.5 34.5q-47 0 -77 -17.5
t-43 -47t-13 -65.5v-169q0 -61 35.5 -95.5t97.5 -34.5q48 0 77.5 17.5t43 47t13.5 65.5z" />
    <glyph glyph-name="q" unicode="q" 
d="M168 353v-169q0 -36 13 -65.5t43 -47t78 -17.5q62 0 97.5 34.5t35.5 95.5v169q0 36 -13.5 65.5t-43 47t-76.5 17.5q-63 0 -98.5 -34.5t-35.5 -95.5zM485 516v-716q0 -10 -7 -18t-17 -8q-9 0 -17 8.5t-8 17.5v258q-26 -29 -61.5 -42.5t-72.5 -13.5q-86 0 -135 48.5
t-49 133.5v169q0 82 50 131.5t134 49.5q96 0 134 -53v35q0 10 8 18t17 8q10 0 17 -8t7 -18z" />
    <glyph glyph-name="r" unicode="r" 
d="M107 36q0 9 6.5 17t16.5 8h74v457q0 10 7.5 18t17.5 8t17.5 -8t7.5 -18v-29q19 21 49 33t61 12q34 0 62 -8.5t48.5 -27t32.5 -46.5t13 -66q0 -9 -7.5 -16.5t-16.5 -7.5t-17 7.5t-8 16.5q-3 51 -31.5 74.5t-75.5 23.5q-45 0 -77 -30t-32 -82v-311h160q9 0 16 -8t7 -17
t-7 -16.5t-16 -7.5h-285q-10 0 -16.5 7.5t-6.5 16.5z" />
    <glyph glyph-name="s" unicode="s" 
d="M435 385q-1 48 -38.5 73t-98.5 25q-124 0 -124 -89q0 -21 16 -40t42 -27l160 -45q33 -10 56.5 -32t32 -48.5t8.5 -48.5q0 -50 -24 -85.5t-68.5 -49.5t-96.5 -14q-84 0 -134.5 38.5t-51.5 110.5q0 9 8 17t18 8q9 0 17 -8t8 -17q1 -52 38.5 -74t96.5 -22q58 0 88.5 14
t40 36.5t9.5 45.5q0 25 -17.5 48t-44.5 33l-160 46q-42 11 -67 42t-25 72q0 27 9 53t31 45t56 30t80 11q52 0 95.5 -16t66 -51t23.5 -81q0 -10 -8 -17t-18 -7t-17 7t-7 17z" />
    <glyph glyph-name="t" unicode="t" 
d="M399 476h-162v-308q0 -62 22.5 -90t67.5 -28q46 0 70.5 23t26.5 75q0 9 8 16.5t17 7.5q8 0 16 -8t8 -17q-5 -73 -42.5 -110t-103.5 -37q-67 0 -103.5 41.5t-36.5 123.5v311h-94q-10 0 -16.5 7t-6.5 17q0 9 7 16.5t16 7.5h94v173q0 10 7 17.5t17 7.5t18 -7.5t8 -17.5v-173
h162q9 0 17 -7.5t8 -16.5q0 -10 -8 -17t-17 -7z" />
    <glyph glyph-name="u" unicode="u" 
d="M434 21v38q-25 -28 -61.5 -42t-73.5 -14q-86 0 -135 48.5t-49 132.5v332q0 10 7.5 18t17.5 8q9 0 17 -8t8 -18v-332q0 -36 13.5 -65.5t43 -47t77.5 -17.5q27 0 58 10.5t54 39t23 69.5v343q0 10 7 18t17 8t18 -8t8 -18v-495q0 -10 -8 -17.5t-18 -7.5t-17 7.5t-7 17.5z" />
    <glyph glyph-name="v" unicode="v" 
d="M184 518l103 -456h26l102 456q2 10 11.5 16t20.5 4q10 -2 16.5 -11.5t3.5 -21.5l-116 -492h-102l-116 493q-3 11 2.5 20t16.5 12t20.5 -3t11.5 -17z" />
    <glyph glyph-name="w" unicode="w" 
d="M430 63l81 457q2 11 12 17t20 4t16 -12t4 -19l-94 -500h-82l-86 435l-87 -435h-82l-95 501q-2 9 4.5 19t16.5 12q11 2 20.5 -4t11.5 -17l81 -458h7l92 464h61l92 -464h7z" />
    <glyph glyph-name="x" unicode="x" 
d="M300 220l-116 -212q-4 -7 -15.5 -10t-19.5 2q-8 4 -10.5 15t2.5 19l130 234l-125 228q-5 9 -3 19.5t11 15.5t20 2t15 -11l111 -205l111 205q4 8 15 11t20 -2t11 -15.5t-3 -19.5l-125 -228l130 -234q5 -8 2.5 -19t-10.5 -15q-8 -5 -19.5 -2t-15.5 10z" />
    <glyph glyph-name="y" unicode="y" 
d="M145 -187q0 10 7.5 18t17.5 8h12q76 0 94 65l25 107h-54l-118 497q-2 10 4 20t15 12q11 3 20.5 -3t11.5 -17l103 -456h30l106 456q2 10 12 16t20 4t15.5 -12t3.5 -20l-148 -611q-15 -62 -49 -85.5t-95 -23.5h-8q-10 0 -17.5 8t-7.5 17z" />
    <glyph glyph-name="z" unicode="z" 
d="M106 501q0 9 8 16.5t17 7.5h316v-49l-272 -414h294q9 0 17 -8t8 -17t-8 -16.5t-17 -7.5h-353v45l276 418h-261q-9 0 -17 8t-8 17z" />
    <glyph glyph-name="braceleft" unicode="{" 
d="M351 -58h-14q-59 0 -85 26q-10 10 -17.5 26t-7.5 58v608q0 26 4 46.5t21 37.5q25 25 85 25h14q8 0 15 -7t7 -15q0 -9 -6.5 -15.5t-15.5 -6.5h-9q-24 0 -36 -1.5t-19 -9.5q-12 -13 -12 -66v-588q0 -48 12 -61q12 -12 55 -12h9q8 0 15 -7t7 -15q0 -9 -7 -16t-15 -7z" />
    <glyph glyph-name="bar" unicode="|" 
d="M276 -37v792q0 9 7 16.5t16 7.5t16.5 -7.5t7.5 -16.5v-792q0 -9 -7.5 -17t-16.5 -8q-10 0 -16.5 8t-6.5 17z" />
    <glyph glyph-name="braceright" unicode="}" 
d="M263 -58h-14q-8 0 -15 7t-7 16q0 8 7 15t15 7h9q43 0 55 12q12 13 12 61v588q0 53 -12 66q-4 4 -12.5 7.5t-42.5 3.5h-9q-9 0 -15.5 6.5t-6.5 15.5q0 8 7 15t15 7h14q60 0 85 -25q10 -10 17.5 -26.5t7.5 -57.5v-608q0 -26 -4 -47t-21 -37q-26 -26 -85 -26z" />
    <glyph glyph-name="asciitilde" unicode="~" 
d="M441 308q7 7 15.5 7t14.5 -6t6 -15t-7 -15q-23 -22 -43.5 -34t-52.5 -12q-21 0 -74 23.5t-78 23.5q-7 0 -23 -3t-44 -30q-6 -5 -14 -5.5t-13 4.5q-6 6 -5.5 15.5t6.5 15.5q29 26 50 36t46 10q21 0 42 -8q9 -3 36.5 -16.5t43.5 -18t29 -4.5q6 0 21.5 3t43.5 29z" />
    <glyph glyph-name="uni00A0" unicode="&#xa0;" 
 />
    <glyph glyph-name="exclamdown" unicode="&#xa1;" 
d="M323 330v-474q0 -10 -7.5 -18t-17.5 -8t-18 8t-8 18v474q0 10 8 18t18 8t17.5 -8t7.5 -18zM258 541h79v-79h-79v79z" />
    <glyph glyph-name="cent" unicode="&#xa2;" 
d="M545 356q0 -37 -13 -79t-48 -84.5t-86 -64.5t-101 -22t-96 19.5t-80 54t-53.5 80.5t-19.5 96t19.5 96t53.5 80t80 53.5t96 19.5t95.5 -19.5t79.5 -53.5t53.5 -80t19.5 -96zM497 356q0 40 -15.5 77.5t-43.5 66t-64.5 44.5t-76.5 16t-72.5 -14t-58.5 -36.5t-47.5 -62.5
t-21.5 -91q0 -41 15.5 -78.5t43 -65.5t64.5 -44t77 -16t76.5 16t64.5 44t43.5 65.5t15.5 78.5zM394 388q0 -19 -8.5 -38.5t-27 -30t-42.5 -10.5h-44v-105h-44v285h87q24 0 43 -10.5t27.5 -30.5t8.5 -39v-21zM349 389v19q0 15 -9 25.5t-25 10.5h-43v-90h43q16 0 25 10.5
t9 24.5z" />
    <glyph glyph-name="sterling" unicode="&#xa3;" 
d="M89 376q0 10 7 17t16 7h31v125q0 80 48.5 129.5t129.5 49.5q82 0 132 -50.5t50 -132.5q0 -10 -7.5 -17t-17.5 -7q-11 0 -18 7t-7 17q0 48 -20 78t-51 42.5t-62 12.5q-58 0 -93.5 -31.5t-35.5 -91.5v-131h214q9 0 16 -7t7 -17q0 -9 -7 -16t-16 -7h-214v-301h294q9 0 17 -8
t8 -18q0 -9 -8 -17t-17 -8h-342v352h-31q-9 0 -16 7t-7 16z" />
    <glyph glyph-name="currency" unicode="&#xa4;" 
d="M465 532q0 49 -20 78.5t-50 41.5t-61 12q-29 0 -59.5 -12t-51 -41.5t-20.5 -77.5v-84h216l-17 -48h-199v-91h186l-16 -46h-170v-79q0 -66 37.5 -98.5t93.5 -32.5q31 0 61 12t50 41.5t20 78.5q0 9 7 16.5t17 7.5q8 0 16 -8t8 -16q0 -25 -7.5 -56.5t-28 -60.5t-57.5 -47.5
t-90 -18.5q-39 0 -73.5 12.5t-57.5 39t-34.5 60.5t-11.5 69v79h-89l16 46h73v91h-89l16 48h73v88q0 23 7.5 53.5t28 59t57 47t88.5 18.5q39 0 74.5 -12.5t58.5 -39t34.5 -60.5t11.5 -70q0 -10 -7.5 -17t-16.5 -7q-10 0 -17 7t-7 17z" />
    <glyph glyph-name="yen" unicode="&#xa5;" 
d="M105 134q0 9 7 16.5t17 7.5h147v100h-147q-10 0 -17 7t-7 16t7 17t17 8h129l-155 376q-4 9 0 19.5t13 14.5q10 4 20.5 -0.5t14.5 -13.5l150 -374l148 374q4 9 14.5 13.5t20.5 0.5q9 -4 13 -14t0 -20l-155 -376h130q9 0 17 -8t8 -17t-8 -16t-17 -7h-147v-100h147
q9 0 17 -7.5t8 -16.5q0 -10 -8 -17t-17 -7h-147v-90q0 -10 -7.5 -17.5t-17.5 -7.5t-17 7t-7 18v90h-147q-10 0 -17 7t-7 17z" />
    <glyph glyph-name="brokenbar" unicode="&#xa6;" 
d="M277 439v283q0 10 6.5 17t16.5 7t16.5 -7t6.5 -17v-283q0 -10 -6.5 -16.5t-16.5 -6.5t-16.5 6.5t-6.5 16.5zM277 -11v284q0 9 6.5 16t16.5 7t16.5 -7t6.5 -16v-284q0 -9 -6.5 -16t-16.5 -7t-16.5 7t-6.5 16z" />
    <glyph glyph-name="section" unicode="&#xa7;" 
d="M118 394q0 54 32 91q-15 14 -23.5 36t-8.5 45q0 27 9 53t31 45t56 30t80 11q63 0 103.5 -19t60.5 -51t21 -78q0 -10 -8 -17t-18 -7t-17 7t-7 17q-1 48 -38.5 73t-98.5 25q-124 0 -124 -89q0 -22 12.5 -39.5t38.5 -25.5l39 -12l131 -38q45 -13 71.5 -46.5t26.5 -78.5
q0 -26 -8 -50.5t-20 -39.5q12 -15 20 -37.5t8 -45.5q0 -50 -24 -85.5t-68.5 -49.5t-96.5 -14q-84 0 -134.5 38.5t-51.5 110.5q0 9 8 17t18 8q9 0 17 -8t8 -17q1 -52 38.5 -74t96.5 -22q58 0 88.5 14t40 36.5t9.5 45.5q0 12 -6 27.5t-21.5 30t-35.5 22.5l-76 21l-94 28
q-37 11 -61 41.5t-24 70.5zM389 279q21 -7 31 -13q16 22 16 60q0 24 -18 46.5t-45 32.5l-76 21l-94 28l-10 4q-25 -22 -25 -64q0 -22 12.5 -40t38.5 -26l39 -11z" />
    <glyph glyph-name="dieresis" unicode="&#xa8;" 
d="M229 629h-69v86h69v-86zM439 630h-69v85h69v-85z" />
    <glyph glyph-name="copyright" unicode="&#xa9;" 
d="M545 356q0 -50 -19.5 -96t-53.5 -80.5t-80 -54t-96 -19.5t-95.5 19.5t-79.5 54t-53.5 80.5t-19.5 96t19.5 96t53.5 80t79.5 53.5t95.5 19.5t96 -19.5t80 -53.5t53.5 -80t19.5 -96zM497 356q0 30 -10.5 63.5t-35.5 64.5t-65 53t-90 22q-40 0 -76.5 -16t-64 -44.5
t-43 -65.5t-15.5 -77q0 -30 10.5 -64t38.5 -68.5t69 -52.5t81 -18t77 16t65 44t43.5 65.5t15.5 77.5zM372 289q0 -19 -9 -39t-28 -30.5t-44 -10.5q-24 0 -43 10.5t-28 30.5t-9 39v132q0 19 9 39t28.5 30.5t43.5 10.5t43 -10.5t28 -30.5t9 -40v-24h-45v24q0 15 -8.5 25
t-26.5 10q-13 0 -24.5 -8t-11.5 -27v-130q0 -15 9 -25t27 -10q35 0 35 35v34h45v-35z" />
    <glyph glyph-name="ordfeminine" unicode="&#xaa;" 
d="M186 619q1 35 17 58t43.5 36t59.5 13q36 0 63.5 -13.5t42.5 -37.5t15 -61v-224q0 -8 -6.5 -14.5t-14.5 -6.5t-14.5 6.5t-6.5 14.5v19q-17 -17 -41 -28.5t-52 -11.5q-51 0 -85.5 27.5t-34.5 81.5q0 46 30.5 70.5t79.5 24.5h103v39q0 73 -78 73q-33 0 -55 -15.5t-23 -50.5
q0 -8 -6.5 -14.5t-15.5 -6.5q-8 0 -14.5 6.5t-6.5 14.5zM385 487v48h-102q-68 0 -68 -57q0 -68 79 -68q27 0 49.5 11t32 29.5t9.5 36.5z" />
    <glyph glyph-name="guillemotleft" unicode="&#xab;" 
d="M447 130l-139 140l139 139q6 6 17 6t17 -6t6 -17.5t-6 -17.5l-106 -104l106 -106q6 -6 6 -17t-6 -17t-17 -6t-17 6zM249 130l-139 140l139 139q6 6 17 6t17 -6t6 -17.5t-6 -17.5l-106 -104l106 -106q6 -6 6 -17t-6 -17t-17 -6t-17 6z" />
    <glyph glyph-name="logicalnot" unicode="&#xac;" 
 />
    <glyph glyph-name="registered" unicode="&#xae;" 
d="M545 356q0 -50 -19 -96t-53.5 -80.5t-80 -54t-95.5 -19.5t-96 19.5t-80 54t-53.5 80.5t-19.5 96t19.5 96t53.5 80t80 53.5t96 19.5t95.5 -19.5t80 -53.5t53.5 -80t19 -96zM497 356q0 40 -15.5 77.5t-43.5 66t-64.5 44.5t-76.5 16t-72.5 -14t-58.5 -36.5t-47.5 -62.5
t-21.5 -91q0 -41 15.5 -78.5t43 -65.5t64.5 -44t77 -16t76.5 16t64.5 44t43.5 65.5t15.5 78.5zM388 399q0 -14 -7 -31.5t-21 -29t-29 -16.5l58 -112h-52l-55 109h-17v-109h-45v285h88q24 0 43 -10.5t28 -30t9 -38.5v-17zM342 399v15q0 15 -9 25t-25 10h-43v-85h44
q15 0 24 10.5t9 24.5z" />
    <glyph glyph-name="macron" unicode="&#xaf;" 
d="M148 636q0 10 7 17t17 7h256q10 0 17 -7t7 -17q0 -9 -7 -16t-17 -7h-256q-10 0 -17 7t-7 16z" />
    <glyph glyph-name="degree" unicode="&#xb0;" 
d="M425 593q0 -23 -12.5 -52t-43.5 -50.5t-68 -21.5q-36 0 -67 21.5t-43.5 50.5t-12.5 52q0 50 36.5 86.5t86.5 36.5q51 0 87.5 -36t36.5 -87zM385 593q0 34 -25 58t-59 24t-58.5 -24t-24.5 -58t24.5 -58t58.5 -24t59 24t25 58z" />
    <glyph glyph-name="plusminus" unicode="&#xb1;" 
d="M95 288q0 10 7 17t16 7h158v152q0 10 6.5 17t16.5 7t16.5 -7t6.5 -17v-152h161q9 0 16 -7t7 -17q0 -9 -7 -16t-16 -7h-161v-165q0 -10 -6.5 -17t-16.5 -7t-16.5 7t-6.5 17v165h-158q-9 0 -16 7t-7 16zM95 33q0 8 6.5 14.5t14.5 6.5h368q8 0 14.5 -6.5t6.5 -14.5t-6.5 -14
t-14.5 -6h-368q-8 0 -14.5 6t-6.5 14z" />
    <glyph glyph-name="acute" unicode="&#xb4;" 
d="M365 734l-85 -142h-44l68 142h61z" />
    <glyph glyph-name="uni00B5" unicode="&#xb5;" 
d="M165 59v-262q0 -10 -7 -17.5t-17 -7.5t-18 7.5t-8 17.5v719q0 10 8 18t18 8t17 -8t7 -18v-343q0 -26 12.5 -53.5t46.5 -46.5t76 -19q48 0 77.5 17.5t43 47t13.5 65.5v332q0 10 8 18t17 8q10 0 17.5 -8t7.5 -18v-332q0 -84 -49 -132.5t-135 -48.5q-37 0 -73.5 14t-61.5 42
z" />
    <glyph glyph-name="uni00B5" unicode="&#x3bc;" 
d="M165 59v-262q0 -10 -7 -17.5t-17 -7.5t-18 7.5t-8 17.5v719q0 10 8 18t18 8t17 -8t7 -18v-343q0 -26 12.5 -53.5t46.5 -46.5t76 -19q48 0 77.5 17.5t43 47t13.5 65.5v332q0 10 8 18t17 8q10 0 17.5 -8t7.5 -18v-332q0 -84 -49 -132.5t-135 -48.5q-37 0 -73.5 14t-61.5 42
z" />
    <glyph glyph-name="paragraph" unicode="&#xb6;" 
d="M491 13l-48 -1v658h-111v-658h-48v390q-51 1 -89.5 18.5t-62.5 51t-24 79.5q0 80 45 120.5t129 40.5h209v-699z" />
    <glyph glyph-name="periodcentered" unicode="&#xb7;" 
d="M341 231h-83v83h83v-83z" />
    <glyph glyph-name="cedilla" unicode="&#xb8;" 
d="M355 -63l-54 -136h-57l65 136h46z" />
    <glyph glyph-name="ordmasculine" unicode="&#xba;" 
d="M425 493q0 -41 -20 -71t-50 -41t-56 -11q-42 0 -72.5 19t-41.5 48t-11 56v111q0 55 34 89t91 34t91.5 -33.5t34.5 -89.5v-111zM379 493v111q0 22 -9 41t-28 28t-43 9q-37 0 -58.5 -21t-21.5 -57v-111q0 -23 9 -42t28 -28t43 -9q37 0 58.5 21.5t21.5 57.5z" />
    <glyph glyph-name="guillemotright" unicode="&#xbb;" 
d="M292 270l-139 -140q-6 -6 -17 -6t-17 6t-6 17t6 17l106 106l-106 104q-6 6 -6 17.5t6 17.5t17 6t17 -6zM490 270l-139 -140q-6 -6 -17 -6t-17 6t-6 17t6 17l106 106l-106 104q-6 6 -6 17.5t6 17.5t17 6t17 -6z" />
    <glyph glyph-name="questiondown" unicode="&#xbf;" 
d="M282 542h79v-79h-79v79zM300 -160q-28 0 -60 9t-61 31.5t-49.5 59.5t-20.5 87q0 102 93 158q62 38 79 68.5t17 69.5v35q0 10 8 17.5t17 7.5q11 0 18 -7t7 -18v-32q0 -110 -92 -163q-51 -30 -67 -48.5t-23.5 -38.5t-7.5 -46q0 -33 11 -59.5t30.5 -45t46.5 -27.5t54 -9
q24 0 56.5 11.5t58 41t26.5 65.5q0 10 7.5 17.5t16.5 7.5q10 0 18 -7.5t7 -17.5q-1 -25 -11.5 -53t-37 -56.5t-65 -43t-76.5 -14.5z" />
    <glyph glyph-name="Agrave" unicode="&#xc0;" 
d="M353 776h-46l-84 141h60zM418 265l-88 393h-60l-90 -393h238zM367 707l161 -678q3 -10 -3 -19t-15 -11q-10 -2 -19.5 3t-11.5 16l-48 197h-262l-48 -197q-6 -22 -30 -19q-11 2 -16 11t-3 20l159 677h136z" />
    <glyph glyph-name="Aacute" unicode="&#xc1;" 
d="M363 917l-85 -142h-44l68 142h61zM418 265l-88 393h-60l-90 -393h238zM367 707l161 -678q3 -10 -3 -19t-15 -11q-10 -2 -19.5 3t-11.5 16l-48 197h-262l-48 -197q-6 -22 -30 -19q-11 2 -16 11t-3 20l159 677h136z" />
    <glyph glyph-name="Acircumflex" unicode="&#xc2;" 
d="M195 808l89 96h32l89 -94q6 -7 6 -17t-6 -16t-16.5 -5.5t-17.5 7.5l-71 76l-72 -78q-7 -7 -17 -7t-16 6q-6 7 -6 16t6 16zM418 265l-88 393h-60l-90 -393h238zM367 707l161 -678q3 -10 -3 -19t-15 -11q-10 -2 -19.5 3t-11.5 16l-48 197h-262l-48 -197q-6 -22 -30 -19
q-11 2 -16 11t-3 20l159 677h136z" />
    <glyph glyph-name="Atilde" unicode="&#xc3;" 
d="M412 843q6 6 15.5 6t14.5 -6q6 -7 5.5 -17t-8.5 -16q-44 -37 -77 -37q-21 0 -63 22t-62 22q-24 0 -48 -22q-9 -9 -18.5 -10t-15.5 6t-5 16.5t8 15.5q41 39 78 39q23 0 63 -22t62 -22q25 0 51 25zM418 265l-88 393h-60l-90 -393h238zM367 707l161 -678q3 -10 -3 -19
t-15 -11q-10 -2 -19.5 3t-11.5 16l-48 197h-262l-48 -197q-6 -22 -30 -19q-11 2 -16 11t-3 20l159 677h136z" />
    <glyph glyph-name="Adieresis" unicode="&#xc4;" 
d="M438 788h-69v85h69v-85zM228 788h-69v85h69v-85zM418 265l-88 393h-60l-90 -393h238zM367 707l161 -678q3 -10 -3 -19t-15 -11q-10 -2 -19.5 3t-11.5 16l-48 197h-262l-48 -197q-6 -22 -30 -19q-11 2 -16 11t-3 20l159 677h136z" />
    <glyph glyph-name="Aring" unicode="&#xc5;" 
d="M394 855q0 -18 -10 -41t-35.5 -40t-54.5 -17q-19 0 -42 10t-39.5 34.5t-16.5 53.5t16.5 54t39.5 35t42 10t42.5 -10t40.5 -34.5t17 -54.5zM352 855q0 24 -17 40.5t-41 16.5q-23 0 -39.5 -16.5t-16.5 -40.5q0 -23 16.5 -39.5t39.5 -16.5q24 0 41 16.5t17 39.5zM418 265
l-88 393h-60l-90 -393h238zM367 707l161 -678q2 -10 -3.5 -19t-14.5 -11q-10 -2 -19 3t-12 16l-48 197h-262l-48 -197q-6 -22 -30 -19q-11 2 -16 11t-3 20l159 677h136z" />
    <glyph glyph-name="AE" unicode="&#xc6;" 
d="M341 356v-295h200q9 0 17 -8t8 -17t-8 -16.5t-17 -7.5h-251v203h-167l-48 -197q-6 -22 -30 -19q-11 2 -16 11t-3 20l159 677h356q9 0 17 -8t8 -17t-8 -16.5t-17 -7.5h-201v-253h178q9 0 16.5 -8t7.5 -17q0 -8 -8 -16t-16 -8h-177zM224 658l-90 -393h156v393h-66z" />
    <glyph glyph-name="Ccedilla" unicode="&#xc7;" 
d="M441 185q0 9 7 17t16 8q10 0 18 -8t8 -17q0 -40 -19 -80.5t-57 -68t-95 -32.5l-48 -119h-56l56 120q-55 6 -91 34t-53.5 68.5t-17.5 76.5v352q0 24 9.5 54t31.5 58.5t60 47t91 18.5q38 0 73.5 -12t61 -37.5t39.5 -59.5t14 -68q0 -10 -8 -17t-17 -7t-16 7t-7 17
q0 38 -16.5 66.5t-50 45t-73.5 16.5q-31 0 -64.5 -12t-55.5 -41.5t-22 -77.5v-350q0 -39 16.5 -68.5t50 -46t75.5 -16.5q31 0 63.5 12t54.5 41.5t22 78.5z" />
    <glyph glyph-name="Egrave" unicode="&#xc8;" 
d="M160 356v-295h305q9 0 17 -8t8 -17t-8 -16.5t-17 -7.5h-356v695h356q9 0 17 -8t8 -17t-8 -16.5t-17 -7.5h-306v-253h283q9 0 16.5 -8t7.5 -17q0 -8 -8 -16t-16 -8h-282zM356 780h-46l-84 141h60z" />
    <glyph glyph-name="Eacute" unicode="&#xc9;" 
d="M160 356v-295h305q9 0 17 -8t8 -17t-8 -16.5t-17 -7.5h-356v695h356q9 0 17 -8t8 -17t-8 -16.5t-17 -7.5h-306v-253h283q9 0 16.5 -8t7.5 -17q0 -8 -8 -16t-16 -8h-282zM355 909l-84 -141h-46l69 141h61z" />
    <glyph glyph-name="Ecircumflex" unicode="&#xca;" 
d="M160 356v-295h305q9 0 17 -8t8 -17t-8 -16.5t-17 -7.5h-356v695h356q9 0 17 -8t8 -17t-8 -16.5t-17 -7.5h-306v-253h283q9 0 16.5 -8t7.5 -17q0 -8 -8 -16t-16 -8h-282zM195 808l89 96h32l89 -94q6 -7 6 -17t-6 -16t-16.5 -5.5t-17.5 7.5l-71 76l-72 -78q-7 -7 -17 -7
t-16 6q-6 7 -6 16t6 16z" />
    <glyph glyph-name="Edieresis" unicode="&#xcb;" 
d="M160 356v-295h305q9 0 17 -8t8 -17t-8 -16.5t-17 -7.5h-356v695h356q9 0 17 -8t8 -17t-8 -16.5t-17 -7.5h-306v-253h283q9 0 16.5 -8t7.5 -17q0 -8 -8 -16t-16 -8h-282zM224 811h-69v86h69v-86zM434 812h-69v85h69v-85z" />
    <glyph glyph-name="Igrave" unicode="&#xcc;" 
d="M159 681q0 10 7.5 18t19.5 8h228q10 0 18 -8t8 -18t-8 -17t-18 -7h-91v-595h91q10 0 18 -8t8 -18t-8 -17t-18 -7h-230q-10 0 -17.5 7t-7.5 17t7.5 18t17.5 8h91v595h-91q-10 0 -17.5 7t-7.5 17zM347 776h-46l-84 141h60z" />
    <glyph glyph-name="Iacute" unicode="&#xcd;" 
d="M159 681q0 10 7.5 18t19.5 8h228q10 0 18 -8t8 -18t-8 -17t-18 -7h-91v-595h91q10 0 18 -8t8 -18t-8 -17t-18 -7h-230q-10 0 -17.5 7t-7.5 17t7.5 18t17.5 8h91v595h-91q-10 0 -17.5 7t-7.5 17zM363 917l-85 -142h-45l69 142h61z" />
    <glyph glyph-name="Icircumflex" unicode="&#xce;" 
d="M159 681q0 10 7.5 18t19.5 8h228q10 0 18 -8t8 -18t-8 -17t-18 -7h-91v-595h91q10 0 18 -8t8 -18t-8 -17t-18 -7h-230q-10 0 -17.5 7t-7.5 17t7.5 18t17.5 8h91v595h-91q-10 0 -17.5 7t-7.5 17zM195 808l89 96h32l89 -94q6 -7 6 -17t-6 -16t-16.5 -5.5t-17.5 7.5l-71 76
l-72 -78q-7 -7 -17 -7t-16 6q-6 7 -6 16t6 16z" />
    <glyph glyph-name="Idieresis" unicode="&#xcf;" 
d="M159 681q0 10 7.5 18t19.5 8h228q10 0 18 -8t8 -18t-8 -17t-18 -7h-91v-595h91q10 0 18 -8t8 -18t-8 -17t-18 -7h-230q-10 0 -17.5 7t-7.5 17t7.5 18t17.5 8h91v595h-91q-10 0 -17.5 7t-7.5 17zM229 811h-69v86h69v-86zM439 812h-69v85h69v-85z" />
    <glyph glyph-name="Eth" unicode="&#xd0;" 
d="M2 379q0 9 7 16t17 7h85v306h201q39 0 75 -12.5t59.5 -39t35.5 -59.5t12 -67v-337q0 -24 -7.5 -55.5t-27.5 -60t-56 -47t-87 -18.5h-205v343h-85q-10 0 -17 7t-7 17zM443 194l1 333q0 39 -15 68t-46 46t-71 17h-151v-256h108q10 0 17 -7t7 -16q0 -10 -7 -17t-17 -7h-108
v-293h153q56 0 92.5 33t36.5 99z" />
    <glyph glyph-name="Ntilde" unicode="&#xd1;" 
d="M433 699q0 10 8 17.5t17 7.5q10 0 18 -7.5t8 -17.5v-688h-97l-211 643h-9v-635q0 -10 -8 -18t-17 -8q-10 0 -18 8t-8 18v688h94l214 -649h9v641zM422 843q6 6 15.5 6t14.5 -6q6 -7 5.5 -17t-8.5 -16q-44 -37 -77 -37q-21 0 -63 22t-62 22q-24 0 -48 -22q-9 -9 -18.5 -10
t-15.5 6t-5 16.5t8 15.5q41 39 78 39q23 0 63 -22t62 -22q25 0 51 25z" />
    <glyph glyph-name="Ograve" unicode="&#xd2;" 
d="M491 183q0 -25 -11.5 -60.5t-40 -65t-66 -42t-77.5 -12.5q-25 0 -54 6.5t-53.5 22.5t-40.5 37.5t-27.5 51t-11.5 63.5v352q0 24 9.5 54t31 58.5t59.5 47t91 18.5q39 0 71 -11t57 -32t44 -58.5t19 -77.5v-352zM441 184v350q0 39 -16.5 68t-50 46t-74.5 17q-31 0 -64 -12
t-55 -41.5t-22 -77.5v-350q0 -39 16.5 -68.5t49.5 -46t75 -16.5q31 0 64 12t55 41.5t22 77.5zM349 776h-46l-84 141h60z" />
    <glyph glyph-name="Oacute" unicode="&#xd3;" 
d="M491 183q0 -25 -10 -55.5t-32 -59t-60.5 -47t-91.5 -18.5q-39 0 -75 12.5t-61 39.5t-38.5 61t-13.5 68v352q0 24 9.5 54t31.5 58.5t60 47t91 18.5q25 0 54.5 -6.5t54 -22.5t41 -37.5t28.5 -51t12 -61.5v-352zM441 184v350q0 39 -16 68t-49.5 46t-74.5 17q-31 0 -64.5 -12
t-55.5 -41.5t-22 -77.5v-350q0 -39 16.5 -68.5t50 -46t75.5 -16.5q41 0 74.5 16.5t49.5 46t16 68.5zM357 917l-84 -142h-46l69 142h61z" />
    <glyph glyph-name="Ocircumflex" unicode="&#xd4;" 
d="M491 183q0 -25 -10 -55.5t-32 -59t-60.5 -47t-91.5 -18.5q-39 0 -75 12.5t-61 39.5t-38.5 61t-13.5 68v352q0 24 9.5 54t31.5 58.5t60 47t91 18.5q25 0 54.5 -6.5t54 -22.5t41 -37.5t28.5 -51t12 -61.5v-352zM441 184v350q0 39 -16 68t-49.5 46t-74.5 17q-31 0 -64.5 -12
t-55.5 -41.5t-22 -77.5v-350q0 -39 16.5 -68.5t50 -46t75.5 -16.5q41 0 74.5 16.5t49.5 46t16 68.5zM195 808l89 96h32l89 -94q6 -7 6 -17t-6 -16t-16.5 -5.5t-17.5 7.5l-71 76l-72 -78q-7 -7 -17 -7t-16 6q-6 7 -6 16t6 16z" />
    <glyph glyph-name="Otilde" unicode="&#xd5;" 
d="M491 183q0 -25 -10 -55.5t-32 -59t-60.5 -47t-91.5 -18.5q-39 0 -75 12.5t-61 39.5t-38.5 61t-13.5 68v352q0 24 9.5 54t31.5 58.5t60 47t91 18.5q25 0 54.5 -6.5t54 -22.5t41 -37.5t28.5 -51t12 -61.5v-352zM441 184v350q0 39 -16 68t-49.5 46t-74.5 17q-31 0 -64.5 -12
t-55.5 -41.5t-22 -77.5v-350q0 -39 16.5 -68.5t50 -46t75.5 -16.5q41 0 74.5 16.5t49.5 46t16 68.5zM412 843q6 6 15.5 6t14.5 -6q6 -7 5.5 -17t-8.5 -16q-44 -37 -77 -37q-21 0 -63 22t-62 22q-24 0 -48 -22q-9 -9 -18.5 -10t-15.5 6t-5 16.5t8 15.5q41 39 78 39
q23 0 63 -22t62 -22q25 0 51 25z" />
    <glyph glyph-name="Odieresis" unicode="&#xd6;" 
d="M491 183q0 -25 -10 -55.5t-32 -59t-60.5 -47t-91.5 -18.5q-39 0 -75 12.5t-61 39.5t-38.5 61t-13.5 68v352q0 24 9.5 54t31.5 58.5t60 47t91 18.5q25 0 54.5 -6.5t54 -22.5t41 -37.5t28.5 -51t12 -61.5v-352zM441 184v350q0 39 -16 68t-49.5 46t-74.5 17q-31 0 -64.5 -12
t-55.5 -41.5t-22 -77.5v-350q0 -39 16.5 -68.5t50 -46t75.5 -16.5q41 0 74.5 16.5t49.5 46t16 68.5zM442 787h-69v85h69v-85zM232 787h-69v85h69v-85z" />
    <glyph glyph-name="multiply" unicode="&#xd7;" 
d="M334 272l126 -127h-1q8 -7 8 -17t-8 -17q-7 -6 -16.5 -6t-17.5 7l-125 126l-127 -127v1q-6 -7 -16.5 -7t-16.5 6q-7 7 -7 17t8 17h-1l126 127l-126 127h1q-8 7 -8 16.5t7 16.5q6 7 16 7t17 -8v1l127 -126l127 126v-1q7 8 17 8t16 -7q7 -7 7 -16.5t-8 -16.5h1z" />
    <glyph glyph-name="Oslash" unicode="&#xd8;" 
d="M149 -22l21 66q-32 28 -47 67.5t-15 72.5v352q0 24 9.5 54t31.5 58.5t60 47t91 18.5q47 0 84 -16l19 59q3 9 13 14t19 2q9 -4 14 -13t2 -18l-23 -71q32 -28 47.5 -66.5t15.5 -69.5v-352q0 -25 -10 -55.5t-32.5 -59t-61 -47t-91.5 -18.5q-47 0 -82 15l-17 -54
q-3 -10 -13.5 -15t-18.5 -2q-9 3 -14 12.5t-2 18.5zM158 184q0 -54 29 -88l181 555q-35 14 -68 14q-31 0 -64.5 -12t-55.5 -41.5t-22 -77.5v-350zM440 184l1 350q0 29 -8.5 51t-21.5 36l-181 -555q33 -13 70 -13q41 0 74.5 16.5t49.5 46t16 68.5z" />
    <glyph glyph-name="Ugrave" unicode="&#xd9;" 
d="M441 699q0 10 7 17.5t17 7.5t18 -7.5t8 -17.5v-516q0 -25 -10 -55.5t-32.5 -59t-61 -47t-91.5 -18.5q-39 0 -75 12.5t-61 39.5t-38.5 61t-13.5 68v515q0 10 7.5 17.5t17.5 7.5q9 0 17 -7.5t8 -17.5v-515q0 -39 16.5 -68.5t50 -46t75.5 -16.5q31 0 64 12t55 41.5t22 77.5
v515zM350 776h-46l-84 141h60z" />
    <glyph glyph-name="Uacute" unicode="&#xda;" 
d="M441 699q0 10 7 17.5t17 7.5t18 -7.5t8 -17.5v-516q0 -25 -10 -55.5t-32.5 -59t-61 -47t-91.5 -18.5q-39 0 -75 12.5t-61 39.5t-38.5 61t-13.5 68v515q0 10 7.5 17.5t17.5 7.5q9 0 17 -7.5t8 -17.5v-515q0 -39 16.5 -68.5t50 -46t75.5 -16.5q31 0 64 12t55 41.5t22 77.5
v515zM363 917l-85 -142h-45l69 142h61z" />
    <glyph glyph-name="Ucircumflex" unicode="&#xdb;" 
d="M441 699q0 10 7 17.5t17 7.5t18 -7.5t8 -17.5v-516q0 -25 -10 -55.5t-32.5 -59t-61 -47t-91.5 -18.5q-39 0 -75 12.5t-61 39.5t-38.5 61t-13.5 68v515q0 10 7.5 17.5t17.5 7.5q9 0 17 -7.5t8 -17.5v-515q0 -39 16.5 -68.5t50 -46t75.5 -16.5q31 0 64 12t55 41.5t22 77.5
v515zM195 808l89 96h32l89 -94q6 -7 6 -17t-6 -16t-16.5 -5.5t-17.5 7.5l-71 76l-72 -78q-7 -7 -17 -7t-16 6q-6 7 -6 16t6 16z" />
    <glyph glyph-name="Udieresis" unicode="&#xdc;" 
d="M441 699q0 10 7 17.5t17 7.5t18 -7.5t8 -17.5v-516q0 -25 -10 -55.5t-32.5 -59t-61 -47t-91.5 -18.5q-39 0 -75 12.5t-61 39.5t-38.5 61t-13.5 68v515q0 10 7.5 17.5t17.5 7.5q9 0 17 -7.5t8 -17.5v-515q0 -39 16.5 -68.5t50 -46t75.5 -16.5q31 0 64 12t55 41.5t22 77.5
v515zM436 788h-69v85h69v-85zM226 788h-69v85h69v-85z" />
    <glyph glyph-name="Yacute" unicode="&#xdd;" 
d="M275 20v243l-173 419q-4 9 0 19.5t13 14.5q10 4 20.5 -0.5t14.5 -13.5l150 -374l148 374q4 9 14.5 13.5t20.5 0.5q9 -4 13 -14t0 -20l-172 -419v-243q0 -10 -7.5 -17.5t-17.5 -7.5t-17 7t-7 18zM375 914l-85 -142h-44l68 142h61z" />
    <glyph glyph-name="Thorn" unicode="&#xde;" 
d="M108 26v682q0 10 8 18t17 8q10 0 18 -8t8 -18v-135h150q39 0 75 -12.5t59.5 -39t35.5 -59.5t12 -67v-53q0 -24 -7.5 -55t-27.5 -59.5t-56 -47t-87 -18.5h-154v-136q0 -10 -8 -18t-17 -8q-10 0 -18 8t-8 18zM441 343v50q0 39 -15 68t-46 46t-71 17h-150v-313h152
q31 0 61 12.5t49.5 42t19.5 77.5z" />
    <glyph glyph-name="germandbls" unicode="&#xdf;" 
d="M107 20v515q0 23 7.5 53.5t28 59t57 47t89.5 18.5q39 0 69.5 -10.5t53.5 -30t39 -54.5t16 -78v-16q0 -34 -14.5 -66t-29 -44.5t-20.5 -15.5q42 -16 66 -55.5t24 -97.5v-52q0 -24 -7.5 -55.5t-27.5 -60t-56 -47t-87 -18.5h-42q-10 0 -17.5 7t-7.5 17t7.5 18t17.5 8h40
q56 0 93 33t37 98v49q0 66 -33.5 98t-87.5 32h-20v51h19q45 -1 71.5 26t26.5 75v14q0 29 -10 57.5t-40.5 48t-79.5 19.5q-31 0 -61.5 -12t-50.5 -41.5t-20 -77.5v-512q0 -10 -7.5 -17.5t-17.5 -7.5q-11 0 -18 7t-7 18z" />
    <glyph glyph-name="agrave" unicode="&#xe0;" 
d="M437 517q0 9 7 17t16 8t17 -8t8 -17v-497q0 -10 -8 -17t-17 -7t-16 7t-7 17v44q-25 -31 -62 -46.5t-75 -15.5q-86 0 -136 49t-50 133v169q0 82 51 131.5t135 49.5q27 0 56 -8.5t49.5 -22.5t31.5 -28v42zM436 184v169q0 35 -14 65t-44 47.5t-78 17.5q-63 0 -98.5 -34.5
t-35.5 -95.5v-169q0 -36 13 -65.5t43 -47t78 -17.5q28 0 60.5 10.5t54 42t21.5 77.5zM365 593h-45l-85 141h61z" />
    <glyph glyph-name="aacute" unicode="&#xe1;" 
d="M437 517q0 9 7 17t16 8t17 -8t8 -17v-497q0 -10 -8 -17t-17 -7t-16 7t-7 17v44q-25 -31 -62 -46.5t-75 -15.5q-86 0 -136 49t-50 133v169q0 82 51 131.5t135 49.5q27 0 56 -8.5t49.5 -22.5t31.5 -28v42zM436 184v169q0 35 -14 65t-44 47.5t-78 17.5q-63 0 -98.5 -34.5
t-35.5 -95.5v-169q0 -36 13 -65.5t43 -47t78 -17.5q28 0 60.5 10.5t54 42t21.5 77.5zM375 734l-84 -142h-46l70 142h60z" />
    <glyph glyph-name="acircumflex" unicode="&#xe2;" 
d="M437 517q0 9 7 17t16 8t17 -8t8 -17v-497q0 -10 -8 -17t-17 -7t-16 7t-7 17v44q-25 -31 -62 -46.5t-75 -15.5q-86 0 -136 49t-50 133v169q0 82 51 131.5t135 49.5q27 0 56 -8.5t49.5 -22.5t31.5 -28v42zM436 184v169q0 35 -14 65t-44 47.5t-78 17.5q-63 0 -98.5 -34.5
t-35.5 -95.5v-169q0 -36 13 -65.5t43 -47t78 -17.5q28 0 60.5 10.5t54 42t21.5 77.5zM195 632l89 96h32l89 -94q6 -7 6 -17t-6 -16t-16.5 -5.5t-17.5 7.5l-71 76l-72 -78q-7 -7 -17 -7t-16 6q-6 7 -6 16t6 16z" />
    <glyph glyph-name="atilde" unicode="&#xe3;" 
d="M437 517q0 9 7 17t16 8t17 -8t8 -17v-497q0 -10 -8 -17t-17 -7t-16 7t-7 17v44q-25 -31 -62 -46.5t-75 -15.5q-86 0 -136 49t-50 133v169q0 82 51 131.5t135 49.5q27 0 56 -8.5t49.5 -22.5t31.5 -28v42zM436 184v169q0 35 -14 65t-44 47.5t-78 17.5q-63 0 -98.5 -34.5
t-35.5 -95.5v-169q0 -36 13 -65.5t43 -47t78 -17.5q28 0 60.5 10.5t54 42t21.5 77.5zM422 676q6 6 15.5 6t14.5 -6q6 -7 5.5 -17t-8.5 -16q-44 -37 -77 -37q-21 0 -63 22t-62 22q-24 0 -48 -22q-9 -9 -18.5 -10t-15.5 6t-5 16.5t8 15.5q41 39 78 39q23 0 63 -22t62 -22
q25 0 51 25z" />
    <glyph glyph-name="adieresis" unicode="&#xe4;" 
d="M437 517q0 9 7 17t16 8t17 -8t8 -17v-497q0 -10 -8 -17t-17 -7t-16 7t-7 17v44q-25 -31 -62 -46.5t-75 -15.5q-86 0 -136 49t-50 133v169q0 82 51 131.5t135 49.5q27 0 56 -8.5t49.5 -22.5t31.5 -28v42zM436 184v169q0 35 -14 65t-44 47.5t-78 17.5q-63 0 -98.5 -34.5
t-35.5 -95.5v-169q0 -36 13 -65.5t43 -47t78 -17.5q28 0 60.5 10.5t54 42t21.5 77.5zM448 629h-69v86h69v-86zM237 629h-68v86h68v-86z" />
    <glyph glyph-name="aring" unicode="&#xe5;" 
d="M437 517q0 9 7 17t16 8t17 -8t8 -17v-497q0 -10 -8 -17t-17 -7t-16 7t-7 17v44q-25 -31 -62 -46.5t-75 -15.5q-86 0 -136 49t-50 133v169q0 82 51 131.5t135 49.5q27 0 56 -8.5t49.5 -22.5t31.5 -28v42zM436 184v169q0 35 -14 65t-44 47.5t-78 17.5q-63 0 -98.5 -34.5
t-35.5 -95.5v-169q0 -36 13 -65.5t43 -47t78 -17.5q28 0 60.5 10.5t54 42t21.5 77.5zM408 679q0 -18 -10 -41.5t-35 -40.5t-54 -17t-54 17t-35 40.5t-10 41.5q0 19 10 42t35 40t54 17q19 0 42 -10t40 -34.5t17 -54.5zM365 679q0 24 -16.5 40.5t-39.5 16.5q-24 0 -40.5 -16.5
t-16.5 -40.5q0 -23 17 -40t40 -17t39.5 17t16.5 40z" />
    <glyph glyph-name="ae" unicode="&#xe6;" 
d="M588 363v-107h-268v-82v-1q0 -35 12.5 -62t36 -42t60.5 -15q43 0 75.5 28t32.5 79q0 9 8 17.5t17 8.5t17.5 -8t8.5 -18q0 -45 -22.5 -83t-61 -57t-75.5 -19q-44 0 -79.5 19t-56.5 55q-21 -34 -54 -53.5t-74 -19.5q-69 0 -111.5 45.5t-42.5 116.5q0 67 42.5 104.5
t112.5 37.5h104v56v3q0 60 -25 89t-69 29q-32 0 -56.5 -12.5t-35 -35.5t-10.5 -50q0 -9 -8 -16.5t-17 -7.5t-16.5 7.5t-7.5 16.5q0 46 20 79t55.5 51t75.5 18q39 0 71 -18t50 -51q21 33 56.5 51t75.5 18q24 0 50.5 -7.5t50.5 -26.5t41 -53t17 -84zM269 164v94h-104
q-104 0 -104 -93q0 -35 16 -63t41.5 -39t48.5 -11q43 0 72.5 30t29.5 82zM538 307v56q0 35 -13 62.5t-36.5 42.5t-59.5 15q-45 0 -77 -31.5t-32 -88.5v-56h218z" />
    <glyph glyph-name="ccedilla" unicode="&#xe7;" 
d="M278 -119h-56l57 122q-77 5 -120.5 53.5t-43.5 127.5v169q0 82 50.5 131.5t134.5 49.5q81 0 131 -45.5t53 -122.5q0 -9 -8 -17t-19 -8q-10 0 -17 7t-7 17q-4 57 -38 87.5t-95 30.5q-63 0 -98.5 -34.5t-35.5 -95.5v-169q0 -36 13 -65.5t43 -47t78 -17.5q60 0 95 31t38 86
q0 9 8 17.5t17 8.5t17 -8.5t9 -17.5q-3 -32 -19 -69.5t-52.5 -64.5t-86.5 -33z" />
    <glyph glyph-name="egrave" unicode="&#xe8;" 
d="M484 353v-97h-318v-72q0 -36 13 -65.5t43 -47t78 -17.5q60 0 95 31t38 86q0 9 8 17.5t17 8.5t17.5 -8t8.5 -18q-7 -76 -56.5 -122.5t-127.5 -46.5q-86 0 -135.5 49t-49.5 133v169q0 82 50.5 131.5t134.5 49.5q85 0 134.5 -48.5t49.5 -132.5zM434 308l-1 45
q0 36 -13.5 65.5t-43 47t-76.5 17.5q-63 0 -98.5 -34.5t-35.5 -95.5v-45h268zM353 593h-46l-84 141h60z" />
    <glyph glyph-name="eacute" unicode="&#xe9;" 
d="M484 353v-97h-318v-72q0 -36 13 -65.5t43 -47t78 -17.5q60 0 95 31t38 86q0 9 8 17.5t17 8.5t17.5 -8t8.5 -18q-7 -76 -56.5 -122.5t-127.5 -46.5q-86 0 -135.5 49t-49.5 133v169q0 82 50.5 131.5t134.5 49.5q85 0 134.5 -48.5t49.5 -132.5zM433 308v45q0 36 -13.5 65.5
t-43 47t-76.5 17.5q-63 0 -98.5 -34.5t-35.5 -95.5v-45h267zM364 734l-85 -142h-46l70 142h61z" />
    <glyph glyph-name="ecircumflex" unicode="&#xea;" 
d="M484 353v-97h-318v-72q0 -36 13 -65.5t43 -47t78 -17.5q60 0 95 31t38 86q0 9 8 17.5t17 8.5t17.5 -8t8.5 -18q-7 -76 -56.5 -122.5t-127.5 -46.5q-86 0 -135.5 49t-49.5 133v169q0 82 50.5 131.5t134.5 49.5q85 0 134.5 -48.5t49.5 -132.5zM434 308l-1 45
q0 36 -13.5 65.5t-43 47t-76.5 17.5q-63 0 -98.5 -34.5t-35.5 -95.5v-45h268zM195 632l89 96h32l89 -94q6 -7 6 -17t-6 -16t-16.5 -5.5t-17.5 7.5l-71 76l-72 -78q-7 -7 -17 -7t-16 6q-6 7 -6 16t6 16z" />
    <glyph glyph-name="edieresis" unicode="&#xeb;" 
d="M484 353v-97h-318v-72q0 -36 13 -65.5t43 -47t78 -17.5q60 0 95 31t38 86q0 9 8 17.5t17 8.5t17.5 -8t8.5 -18q-7 -76 -56.5 -122.5t-127.5 -46.5q-86 0 -135.5 49t-49.5 133v169q0 82 50.5 131.5t134.5 49.5q85 0 134.5 -48.5t49.5 -132.5zM434 308l-1 45
q0 36 -13.5 65.5t-43 47t-76.5 17.5q-63 0 -98.5 -34.5t-35.5 -95.5v-45h268zM227 629h-69v86h69v-86zM437 630h-69v85h69v-85z" />
    <glyph glyph-name="igrave" unicode="&#xec;" 
d="M113 36q0 10 7 17t16 7h138v420h-138q-9 0 -16 7t-7 16q0 10 7 17t16 7h189v-467h104q9 0 16 -7t7 -17t-7 -16.5t-16 -6.5h-293q-9 0 -16 6.5t-7 16.5zM330 593h-46l-84 141h60z" />
    <glyph glyph-name="iacute" unicode="&#xed;" 
d="M113 36q0 10 7 17t16 7h138v420h-138q-9 0 -16 7t-7 16q0 10 7 17t16 7h189v-467h104q9 0 16 -7t7 -17t-7 -16.5t-16 -6.5h-293q-9 0 -16 6.5t-7 16.5zM365 735l-84 -141h-46l69 141h61z" />
    <glyph glyph-name="icircumflex" unicode="&#xee;" 
d="M113 36q0 10 7 17t16 7h138v420h-138q-9 0 -16 7t-7 16q0 10 7 17t16 7h189v-467h104q9 0 16 -7t7 -17t-7 -16.5t-16 -6.5h-293q-9 0 -16 6.5t-7 16.5zM195 632l89 96h32l89 -94q6 -7 6 -17t-6 -16t-16.5 -5.5t-17.5 7.5l-71 76l-72 -78q-7 -7 -17 -7t-16 6q-6 7 -6 16
t6 16z" />
    <glyph glyph-name="idieresis" unicode="&#xef;" 
d="M113 36q0 10 7 17t16 7h138v420h-138q-9 0 -16 7t-7 16q0 10 7 17t16 7h189v-467h104q9 0 16 -7t7 -17t-7 -16.5t-16 -6.5h-293q-9 0 -16 6.5t-7 16.5zM438 625h-68v85h68v-85zM228 625h-68v85h68v-85z" />
    <glyph glyph-name="eth" unicode="&#xf0;" 
d="M278 698q0 9 7.5 16.5t16.5 7.5h4q38 -1 69.5 -13t56 -33.5t43 -59t18.5 -78.5v-362q0 -84 -53 -135t-139 -51q-32 0 -65.5 8.5t-62 30t-47.5 58t-19 89.5v175q0 83 53.5 134t140.5 51q84 0 142 -53v53q0 50 -21 81t-53.5 43.5t-66.5 12.5q-9 0 -16.5 8t-7.5 17zM443 176
v175q0 24 -9 55.5t-41.5 56t-91.5 24.5q-67 0 -105.5 -36t-38.5 -100v-175q0 -38 14.5 -69.5t46.5 -50t83 -18.5q66 0 104 36.5t38 101.5z" />
    <glyph glyph-name="ntilde" unicode="&#xf1;" 
d="M434 21v332q0 36 -13.5 65.5t-43 47t-76.5 17.5q-59 0 -97.5 -36t-38.5 -92v-334q0 -10 -8 -17.5t-17 -7.5q-11 0 -18 7t-7 18v495q0 10 7.5 18t17.5 8q9 0 17 -8t8 -18v-42q23 27 62.5 43.5t73.5 16.5q85 0 134 -48.5t49 -132.5v-332q0 -10 -8 -17.5t-18 -7.5t-17 7.5
t-7 17.5zM411 676q6 6 15.5 6t14.5 -6q6 -7 5.5 -17t-8.5 -16q-44 -37 -77 -37q-21 0 -63 22t-62 22q-24 0 -48 -22q-9 -9 -18.5 -10t-15.5 6t-5 16.5t8 15.5q41 39 78 39q23 0 63 -22t62 -22q25 0 51 25z" />
    <glyph glyph-name="ograve" unicode="&#xf2;" 
d="M485 184q0 -83 -50 -132t-135 -49t-135 48.5t-50 132.5v169q0 82 50.5 131.5t134.5 49.5q85 0 135 -48.5t50 -132.5v-169zM434 184v169q0 36 -13.5 65.5t-43 47t-77.5 17.5q-63 0 -98.5 -34.5t-35.5 -95.5v-169q0 -22 6.5 -46t21 -43t41.5 -30.5t65 -11.5q63 0 98.5 35
t35.5 96zM356 593h-46l-84 141h60z" />
    <glyph glyph-name="oacute" unicode="&#xf3;" 
d="M484 184q0 -83 -50 -132t-134 -49q-86 0 -135.5 48.5t-49.5 132.5v169q0 82 50.5 131.5t134.5 49.5q85 0 134.5 -48.5t49.5 -132.5v-169zM434 184v169q0 36 -13.5 65.5t-43 47t-77.5 17.5q-63 0 -98.5 -34.5t-35.5 -95.5v-169q0 -36 13 -66t43 -47.5t78 -17.5
q63 0 98.5 35t35.5 96zM365 734l-85 -142h-46l70 142h61z" />
    <glyph glyph-name="ocircumflex" unicode="&#xf4;" 
d="M484 184q0 -83 -50 -132t-135 -49t-134.5 48.5t-49.5 132.5v169q0 82 50 131.5t134 49.5q86 0 135.5 -48.5t49.5 -132.5v-169zM433 184v169q0 36 -13.5 65.5t-43 47t-77.5 17.5q-62 0 -98 -34.5t-36 -95.5v-169q0 -22 6.5 -46t21 -43t41.5 -30.5t65 -11.5q63 0 98.5 35
t35.5 96zM195 632l89 96h32l89 -94q6 -7 6 -17t-6 -16t-16.5 -5.5t-17.5 7.5l-71 76l-72 -78q-7 -7 -17 -7t-16 6q-6 7 -6 16t6 16z" />
    <glyph glyph-name="otilde" unicode="&#xf5;" 
d="M484 184q0 -83 -50 -132t-135 -49t-134.5 48.5t-49.5 132.5v169q0 82 50 131.5t134 49.5q86 0 135.5 -48.5t49.5 -132.5v-169zM433 184v169q0 36 -13.5 65.5t-43 47t-77.5 17.5q-62 0 -98 -34.5t-36 -95.5v-169q0 -22 6.5 -46t21 -43t41.5 -30.5t65 -11.5q63 0 98.5 35
t35.5 96zM407 675q6 6 15.5 6t14.5 -6q6 -7 5.5 -17t-8.5 -16q-44 -37 -77 -37q-21 0 -63 22t-62 22q-24 0 -48 -22q-9 -9 -18.5 -10t-15.5 6t-5 16.5t8 15.5q41 39 78 39q23 0 63 -22t62 -22q25 0 51 25z" />
    <glyph glyph-name="odieresis" unicode="&#xf6;" 
d="M484 184q0 -83 -50 -132t-134 -49q-86 0 -135.5 48.5t-49.5 132.5v169q0 82 50.5 131.5t134.5 49.5q85 0 134.5 -48.5t49.5 -132.5v-169zM434 184v169q0 36 -13.5 65.5t-43 47t-77.5 17.5q-63 0 -98.5 -34.5t-35.5 -95.5v-169q0 -36 13 -66t43 -47.5t78 -17.5
q63 0 98.5 35t35.5 96zM228 629h-69v86h69v-86zM438 630h-69v85h69v-85z" />
    <glyph glyph-name="divide" unicode="&#xf7;" 
d="M112 271q0 9 6 15t15 6h333q9 0 15.5 -6t6.5 -15t-6.5 -15t-15.5 -6h-333q-9 0 -15 6t-6 15zM333 81h-67v77h67v-77zM333 385h-67v76h67v-76z" />
    <glyph glyph-name="oslash" unicode="&#xf8;" 
d="M485 184q0 -83 -50 -132t-134 -49q-52 0 -87 16l-52 -113q-4 -10 -14 -14.5t-19 -0.5q-9 5 -12 14t2 20l56 118q-28 22 -43.5 59t-15.5 82v169q0 82 50.5 131.5t134.5 49.5q53 0 91 -19l46 97q4 9 14 13t18 0q9 -4 12 -13.5t-1 -18.5l-50 -104q24 -23 39 -59.5t15 -76.5
v-169zM167 184q0 -63 29 -93l175 378q-30 14 -70 14q-63 0 -98.5 -34.5t-35.5 -95.5v-169zM434 184v169q0 24 -6 47t-19 40l-175 -376q33 -11 67 -11q62 0 97.5 35t35.5 96z" />
    <glyph glyph-name="ugrave" unicode="&#xf9;" 
d="M434 21v38q-13 -13 -33.5 -26.5t-48 -21.5t-53.5 -8q-86 0 -135 48.5t-49 132.5v332q0 10 7.5 18t17.5 8q9 0 17 -8t8 -18v-332q0 -36 13.5 -65.5t43 -47t77.5 -17.5q27 0 58 10.5t54 39t23 69.5v343q0 10 7 18t17 8t18 -8t8 -18v-495q0 -10 -8 -17.5t-18 -7.5t-17 7.5
t-7 17.5zM352 593h-45l-84 141h61z" />
    <glyph glyph-name="uacute" unicode="&#xfa;" 
d="M434 21v38q-13 -13 -33.5 -26.5t-48 -21.5t-53.5 -8q-86 0 -135 48.5t-49 132.5v332q0 10 7.5 18t17.5 8q9 0 17 -8t8 -18v-332q0 -36 13.5 -65.5t43 -47t77.5 -17.5q27 0 58 10.5t54 39t23 69.5v343q0 10 7 18t17 8t18 -8t8 -18v-495q0 -10 -8 -17.5t-18 -7.5t-17 7.5
t-7 17.5zM348 734l-84 -142h-46l69 142h61z" />
    <glyph glyph-name="ucircumflex" unicode="&#xfb;" 
d="M434 21v38q-13 -13 -33.5 -26.5t-48 -21.5t-53.5 -8q-86 0 -135 48.5t-49 132.5v332q0 10 7.5 18t17.5 8q9 0 17 -8t8 -18v-332q0 -36 13.5 -65.5t43 -47t77.5 -17.5q27 0 58 10.5t54 39t23 69.5v343q0 10 7 18t17 8t18 -8t8 -18v-495q0 -10 -8 -17.5t-18 -7.5t-17 7.5
t-7 17.5zM195 632l89 96h32l89 -94q6 -7 6 -17t-6 -16t-16.5 -5.5t-17.5 7.5l-71 76l-72 -78q-7 -7 -17 -7t-16 6q-6 7 -6 16t6 16z" />
    <glyph glyph-name="udieresis" unicode="&#xfc;" 
d="M434 21v38q-13 -13 -33.5 -26.5t-48 -21.5t-53.5 -8q-86 0 -135 48.5t-49 132.5v332q0 10 7.5 18t17.5 8q9 0 17 -8t8 -18v-332q0 -36 13.5 -65.5t43 -47t77.5 -17.5q27 0 58 10.5t54 39t23 69.5v343q0 10 7 18t17 8t18 -8t8 -18v-495q0 -10 -8 -17.5t-18 -7.5t-17 7.5
t-7 17.5zM432 625h-68v85h68v-85zM222 625h-69v85h69v-85z" />
    <glyph glyph-name="yacute" unicode="&#xfd;" 
d="M145 -187q0 10 7.5 18t17.5 8h12q76 0 94 65l25 107h-54l-118 497q-2 10 4 20t15 12q11 3 20.5 -3t11.5 -17l103 -456h30l106 456q2 10 12 16t20 4t15.5 -12t3.5 -20l-148 -611q-15 -62 -49 -85.5t-95 -23.5h-8q-10 0 -17.5 8t-7.5 17zM375 734l-85 -142h-44l68 142h61z
" />
    <glyph glyph-name="thorn" unicode="&#xfe;" 
d="M116 -198v895q0 10 7 17.5t17 7.5q9 0 17 -7.5t8 -17.5v-217q23 26 60.5 40t74.5 14q85 0 134.5 -48.5t49.5 -132.5v-169q0 -83 -50 -132.5t-134 -49.5q-34 0 -72 14t-63 39v-253q0 -10 -7.5 -18t-16.5 -8q-10 0 -17.5 8t-7.5 18zM433 184v169q0 36 -13 65.5t-43 47
t-77 17.5q-63 0 -98.5 -34.5t-35.5 -95.5v-169q0 -36 13.5 -65.5t43 -47t77.5 -17.5q62 0 97.5 34.5t35.5 95.5z" />
    <glyph glyph-name="ydieresis" unicode="&#xff;" 
d="M145 -187q0 10 7.5 18t17.5 8h12q76 0 94 65l25 107h-54l-118 497q-2 10 4 20t15 12q10 2 20 -4t12 -16l102 -456h31l106 456q2 10 12.5 16t19.5 4t15 -12t4 -20l-148 -611q-15 -62 -49 -85.5t-95 -23.5h-8q-10 0 -17.5 8t-7.5 17zM440 622h-69v85h69v-85zM230 622h-69
v85h69v-85z" />
    <glyph glyph-name="dotlessi" unicode="&#x131;" 
d="M113 36q0 10 7 17t16 7h138v420h-138q-9 0 -16 7t-7 16q0 10 7 17t16 7h189v-467h104q9 0 16 -7t7 -17t-7 -16.5t-16 -6.5h-293q-9 0 -16 6.5t-7 16.5z" />
    <glyph glyph-name="Lslash" unicode="&#x141;" 
d="M52 302q0 9 6 15t15 6h63v376q0 10 7.5 17.5t17.5 7.5q9 0 17 -7.5t8 -17.5v-376h220q9 0 15.5 -6t6.5 -15t-6.5 -15t-15.5 -6h-220v-218h305q10 0 18 -8t8 -18t-8 -17t-18 -7h-355v268h-63q-9 0 -15 6t-6 15z" />
    <glyph glyph-name="lslash" unicode="&#x142;" 
d="M66 299q0 9 6 15t15 6h142v340h-99q-10 0 -17 7t-7 16q0 10 7 17t17 7h148v-387h142q9 0 15.5 -6t6.5 -15t-6.5 -15t-15.5 -6h-142v-218h144q10 0 17 -7t7 -17t-7 -16.5t-17 -6.5h-331q-10 0 -17 6.5t-7 16.5t7 17t17 7h138v218h-142q-9 0 -15 6t-6 15z" />
    <glyph glyph-name="OE" unicode="&#x152;" 
d="M351 356v-295h185q9 0 17 -8t8 -17t-8 -16.5t-17 -7.5h-274q-64 0 -105.5 25.5t-62 65t-20.5 81.5v352q0 24 9.5 53t31.5 56t60 44.5t91 17.5h270q9 0 17 -8t8 -17t-8 -16.5t-17 -7.5h-185v-253h162q9 0 16.5 -8t7.5 -17q0 -8 -8 -16t-16 -8h-162zM124 184
q0 -57 34.5 -89t107.5 -32h34v595h-34q-44 0 -76.5 -14.5t-49 -42.5t-16.5 -67v-350z" />
    <glyph glyph-name="oe" unicode="&#x153;" 
d="M323 256v-90q0 -46 27.5 -79t81.5 -33q43 0 75.5 28t32.5 79q0 9 8 17.5t17 8.5t17.5 -8t8.5 -18q0 -45 -22.5 -83t-61 -57t-75.5 -19q-43 0 -79 18.5t-56 53.5q-20 -34 -55.5 -53t-76.5 -19q-33 0 -62 11t-51 33t-34.5 54.5t-12.5 73.5v189q0 49 19 86.5t55.5 61
t85.5 23.5q42 0 77.5 -19t55.5 -53q21 34 57 53t77 19q24 0 50.5 -7.5t50.5 -26.5t41 -53t17 -84v-107h-268zM273 168v203q-2 34 -15 59t-36 39t-57 14q-45 0 -77 -31.5t-32 -88.5v-189q0 -35 12.5 -63t36.5 -43.5t60 -15.5q43 0 75.5 31t32.5 85zM541 308v55q0 35 -13 62.5
t-36.5 42.5t-59.5 15q-45 0 -77 -31.5t-32 -88.5v-55h218z" />
    <glyph glyph-name="Scaron" unicode="&#x160;" 
d="M438 547q0 55 -42 86.5t-101 31.5q-24 0 -56 -8.5t-56 -34t-24 -66.5q0 -16 6.5 -36.5t24 -41t39.5 -32.5l169 -100q49 -30 74.5 -74.5t25.5 -98.5q0 -49 -25.5 -90.5t-74 -62.5t-102.5 -21q-32 0 -66 9t-62 31t-47 57.5t-19 83.5q0 9 7.5 16.5t17.5 7.5q9 0 16.5 -7.5
t7.5 -16.5q0 -46 23.5 -76.5t57.5 -41.5t63 -11q42 0 75.5 12.5t55.5 39.5t22 69q0 41 -21 77t-58 57l-171 100q-19 11 -40 32.5t-35 54.5t-14 65q0 69 52 114t134 45q86 0 139 -47t53 -123q0 -9 -8 -17t-17 -8t-16.5 7.5t-7.5 17.5zM405 869l-89 -96h-32l-89 94q-6 7 -6 17
t6 16t16.5 5.5t17.5 -7.5l71 -76l72 78q7 7 17 7t16 -6q6 -7 6 -16t-6 -16z" />
    <glyph glyph-name="scaron" unicode="&#x161;" 
d="M435 385q-1 48 -38.5 73t-98.5 25q-124 0 -124 -89q0 -21 16 -40t42 -27l160 -45q33 -10 56.5 -32t32 -48.5t8.5 -48.5q0 -50 -24 -85.5t-68.5 -49.5t-96.5 -14q-84 0 -134.5 38.5t-51.5 110.5q0 9 8 17t18 8q9 0 17 -8t8 -17q1 -52 38.5 -74t96.5 -22q58 0 88.5 14
t40 36.5t9.5 45.5q0 25 -17.5 48t-44.5 33l-160 46q-42 11 -67 42t-25 72q0 27 9 53t31 45t56 30t80 11q52 0 95.5 -16t66 -51t23.5 -81q0 -10 -8 -17t-18 -7t-17 7t-7 17zM405 689l-89 -96h-32l-89 94q-6 7 -6 17t6 16t16.5 5.5t17.5 -7.5l71 -76l72 78q7 7 17 7t16 -6
q6 -7 6 -16t-6 -16z" />
    <glyph glyph-name="Ydieresis" unicode="&#x178;" 
d="M275 20v243l-173 419q-4 9 0.5 20t13.5 15q10 4 20.5 -1t14.5 -14l149 -374l148 374q4 9 14.5 14t20.5 1q9 -4 13 -14.5t0 -20.5l-172 -419v-243q0 -10 -7.5 -17.5t-17.5 -7.5t-17 7t-7 18zM433 788h-68v85h68v-85zM223 788h-69v85h69v-85z" />
    <glyph glyph-name="Zcaron" unicode="&#x17d;" 
d="M101 681q0 10 7 18t17 8h339v-48l-307 -596h316q10 0 17.5 -8t7.5 -18t-7.5 -17t-17.5 -7h-370v50l305 594h-283q-10 0 -17 7t-7 17zM405 869l-89 -96h-32l-89 94q-6 7 -6 17t6 16t16.5 5.5t17.5 -7.5l71 -76l72 78q7 7 17 7t16 -6q6 -7 6 -16t-6 -16z" />
    <glyph glyph-name="zcaron" unicode="&#x17e;" 
d="M106 501q0 9 8 16.5t17 7.5h316v-49l-272 -414h294q9 0 17 -8t8 -17t-8 -16.5t-17 -7.5h-353v45l276 418h-261q-9 0 -17 8t-8 17zM405 689l-89 -96h-32l-89 94q-6 7 -6 17t6 16t16.5 5.5t17.5 -7.5l71 -76l72 78q7 7 17 7t16 -6q6 -7 6 -16t-6 -16z" />
    <glyph glyph-name="florin" unicode="&#x192;" 
d="M429 19v45q-12 -14 -32.5 -28.5t-48 -23.5t-50.5 -9q-35 0 -67.5 10t-57.5 30t-39 51t-14 71q0 25 8 50.5t28 46t51.5 34t74.5 13.5h147v57q0 30 -12 58t-42 44t-65 16q-37 0 -66 -11.5t-45 -33t-16 -53.5q0 -9 -8 -16.5t-17 -7.5t-16.5 7.5t-7.5 16.5q0 37 14.5 65.5
t40 47t58 27t63.5 8.5q51 0 89.5 -21.5t59 -57.5t20.5 -86v-350q0 -10 -8 -17.5t-18 -7.5t-17 7.5t-7 17.5zM429 164v96h-145q-52 0 -83 -24t-31 -71q0 -29 13 -55.5t45.5 -42t72.5 -15.5q45 0 86.5 31.5t41.5 80.5z" />
    <glyph glyph-name="circumflex" unicode="&#x2c6;" 
d="M195 632l89 96h32l89 -94q6 -7 6 -17t-6 -16t-16.5 -5.5t-17.5 7.5l-71 76l-72 -78q-7 -7 -17 -7t-16 6q-6 7 -6 16t6 16z" />
    <glyph glyph-name="caron" unicode="&#x2c7;" 
d="M405 689l-89 -96h-32l-89 94q-6 7 -6 17t6 16t16.5 5.5t17.5 -7.5l71 -76l72 78q7 7 17 7t16 -6q6 -7 6 -16t-6 -16z" />
    <glyph glyph-name="breve" unicode="&#x2d8;" 
d="M410 715h47q-10 -56 -51.5 -88.5t-103.5 -32.5q-65 0 -107 31t-51 90h47q9 -38 39 -58.5t72 -20.5t71 20.5t37 58.5z" />
    <glyph glyph-name="dotaccent" unicode="&#x2d9;" 
d="M334 633h-69v63h69v-63z" />
    <glyph glyph-name="ring" unicode="&#x2da;" 
d="M399 679q0 -29 -17.5 -54t-40.5 -35t-42 -10t-41.5 10t-39.5 35t-17 54t16.5 54t39.5 35t42 10t42 -10t40.5 -34.5t17.5 -54.5zM357 679q0 24 -17.5 40.5t-40.5 16.5t-39.5 -16.5t-16.5 -40.5q0 -23 16.5 -40t39.5 -17q24 0 41 17t17 40z" />
    <glyph glyph-name="ogonek" unicode="&#x2db;" 
d="M360 -199h-66l-54 137h55z" />
    <glyph glyph-name="tilde" unicode="&#x2dc;" 
d="M412 676q6 6 15.5 6t14.5 -6q6 -7 5.5 -17t-8.5 -16q-44 -37 -77 -37q-21 0 -63 22t-62 22q-24 0 -48 -22q-9 -9 -18.5 -10t-15.5 6t-5 16.5t8 15.5q41 39 78 39q19 0 33.5 -5.5t34.5 -17.5q33 -21 57 -21q25 0 51 25z" />
    <glyph glyph-name="hungarumlaut" unicode="&#x2dd;" 
d="M298 734l-99 -141h-55l82 141h72zM457 734l-99 -141h-55l82 141h72z" />
    <glyph glyph-name="Omega" unicode="&#x3a9;" 
d="M53 34q0 8 6.5 14.5t14.5 6.5h86q-28 30 -41.5 66.5t-13.5 66.5v364q0 25 9.5 55.5t32 59t61 47.5t92.5 19q40 0 77 -13t63.5 -40t40.5 -61.5t14 -67.5v-364q0 -30 -14 -65.5t-43 -66.5h87q8 0 14.5 -6.5t6.5 -14.5t-6.5 -14.5t-14.5 -6.5h-4h-168h-3q-8 0 -14.5 6.5
t-6.5 14.5t5 14t13 7q98 29 98 133v362q0 41 -16.5 71.5t-50.5 47t-78 16.5q-34 0 -67.5 -12t-56 -42.5t-22.5 -80.5v-362q0 -47 24.5 -81t74.5 -52q7 -1 12.5 -7t5.5 -14t-6.5 -14.5t-14.5 -6.5h-176q-8 0 -14.5 6.5t-6.5 14.5z" />
    <glyph glyph-name="Omega" unicode="&#x2126;" 
d="M53 34q0 8 6.5 14.5t14.5 6.5h86q-28 30 -41.5 66.5t-13.5 66.5v364q0 25 9.5 55.5t32 59t61 47.5t92.5 19q40 0 77 -13t63.5 -40t40.5 -61.5t14 -67.5v-364q0 -30 -14 -65.5t-43 -66.5h87q8 0 14.5 -6.5t6.5 -14.5t-6.5 -14.5t-14.5 -6.5h-4h-168h-3q-8 0 -14.5 6.5
t-6.5 14.5t5 14t13 7q98 29 98 133v362q0 41 -16.5 71.5t-50.5 47t-78 16.5q-34 0 -67.5 -12t-56 -42.5t-22.5 -80.5v-362q0 -47 24.5 -81t74.5 -52q7 -1 12.5 -7t5.5 -14t-6.5 -14.5t-14.5 -6.5h-176q-8 0 -14.5 6.5t-6.5 14.5z" />
    <glyph glyph-name="pi" unicode="&#x3c0;" 
d="M130 37v442h-63q-9 0 -16 7.5t-7 16.5q0 10 7 17t16 7h465q10 0 17 -7.5t7 -17.5q0 -9 -7 -16t-17 -7h-73v-343q0 -19 7 -38t25 -28.5t42 -9.5q9 0 16 -7t7 -17t-7 -17t-16 -7q-24 0 -53.5 10t-50 40t-20.5 79v338h-229v-442q0 -10 -7 -18t-17 -8t-18 8t-8 18z" />
    <glyph glyph-name="endash" unicode="&#x2013;" 
d="M112 267q0 9 6 15t15 6h333q9 0 15.5 -6t6.5 -15t-6.5 -15t-15.5 -6h-333q-9 0 -15 6t-6 15z" />
    <glyph glyph-name="emdash" unicode="&#x2014;" 
d="M13 267q0 9 5.5 15t14.5 6h533q9 0 15 -6t6 -15t-6 -15t-15 -6h-533q-9 0 -14.5 6t-5.5 15z" />
    <glyph glyph-name="quoteleft" unicode="&#x2018;" 
d="M379 772l-77 -205h-85l130 205h32z" />
    <glyph glyph-name="quoteright" unicode="&#x2019;" 
d="M382 772l-130 -205h-31l76 205h85z" />
    <glyph glyph-name="quotesinglbase" unicode="&#x201a;" 
d="M333 9l-66 -68v145h66v-77z" />
    <glyph glyph-name="quotedblleft" unicode="&#x201c;" 
d="M449 809l-80 -210h-90l131 210h39zM318 809l-80 -210h-90l131 210h39z" />
    <glyph glyph-name="quotedblright" unicode="&#x201d;" 
d="M453 809l-132 -210h-39l80 210h91zM322 809l-132 -210h-39l80 210h91z" />
    <glyph glyph-name="quotedblbase" unicode="&#x201e;" 
d="M453 97l-132 -210h-39l80 210h91zM322 97l-132 -210h-39l80 210h91z" />
    <glyph glyph-name="dagger" unicode="&#x2020;" 
d="M114 520q0 9 7 16t17 7h138v212q0 9 7 16.5t16 7.5t16.5 -7.5t7.5 -16.5v-212h138q10 0 17 -7t7 -16q0 -10 -7 -17t-17 -7h-138v-533q0 -9 -7.5 -17t-16.5 -8q-10 0 -16.5 8t-6.5 17v533h-138q-10 0 -17 7t-7 17z" />
    <glyph glyph-name="daggerdbl" unicode="&#x2021;" 
d="M104 223q0 9 7 16.5t17 7.5h148v248h-148q-10 0 -17 7t-7 16t7 17t17 8h148v212q0 9 7 16.5t16 7.5t16.5 -7.5t7.5 -16.5v-212h148q9 0 17 -8t8 -17t-8 -16t-17 -7h-148v-248h148q9 0 17 -7.5t8 -16.5q0 -10 -8 -17t-17 -7h-148v-236q0 -9 -7.5 -17t-16.5 -8
q-10 0 -16.5 8t-6.5 17v236h-148q-10 0 -17 7t-7 17z" />
    <glyph glyph-name="bullet" unicode="&#x2022;" 
d="M400 354q0 -19 -10 -42.5t-35.5 -41t-55.5 -17.5t-55 17.5t-35 41t-10 42.5t10 42.5t35 41t55 17.5q19 0 42.5 -10t41 -35.5t17.5 -55.5z" />
    <glyph glyph-name="ellipsis" unicode="&#x2026;" 
d="M121 12h-72v83h72v-83zM551 13l-72 -1v83h72v-82zM335 12h-71v83h71v-83z" />
    <glyph glyph-name="perthousand" unicode="&#x2030;" 
 />
    <glyph glyph-name="guilsinglleft" unicode="&#x2039;" 
d="M347 130l-139 140l139 139q7 6 17.5 6t16.5 -6q7 -7 6.5 -18t-6.5 -17l-105 -104l105 -106q6 -6 6 -17t-6 -17t-17 -6t-17 6z" />
    <glyph glyph-name="guilsinglright" unicode="&#x203a;" 
d="M392 270l-139 -140q-6 -6 -17 -6t-17 6t-6 17t6 17l105 106l-105 104q-6 6 -6.5 17t6.5 18q6 6 16.5 6t17.5 -6z" />
    <glyph glyph-name="fraction" unicode="&#x2044;" 
d="M99 -18l378 780q2 4 6.5 8.5t11 6t13.5 -1.5q9 -4 13 -13.5t-1 -19.5l-378 -778q-5 -10 -15 -14.5t-18 -0.5t-11.5 13.5t1.5 19.5z" />
    <glyph glyph-name="Euro" unicode="&#x20ac;" 
d="M465 532q0 49 -20 78.5t-50 41.5t-61 12q-29 0 -59.5 -12t-51 -41.5t-20.5 -77.5v-84h216l-17 -48h-199v-91h186l-16 -46h-170v-79q0 -66 37.5 -98.5t93.5 -32.5q31 0 61 12t50 41.5t20 78.5q0 9 7 16.5t17 7.5q8 0 16 -8t8 -16q0 -25 -7.5 -56.5t-28 -60.5t-57.5 -47.5
t-90 -18.5q-39 0 -73.5 12.5t-57.5 39t-34.5 60.5t-11.5 69v79h-89l16 46h73v91h-89l16 48h73v88q0 23 7.5 53.5t28 59t57 47t88.5 18.5q39 0 74.5 -12.5t58.5 -39t34.5 -60.5t11.5 -70q0 -10 -7.5 -17t-16.5 -7q-10 0 -17 7t-7 17z" />
    <glyph glyph-name="trademark" unicode="&#x2122;" 
d="M566 331h-42v315l-67 -189h-37l-66 189v-315h-42v375h65l62 -176l61 176h66v-375zM265 665h-95v-330h-42v329h-95v42h232v-41z" />
    <glyph glyph-name="partialdiff" unicode="&#x2202;" 
 />
    <glyph glyph-name="uni2206" unicode="&#x2206;" 
 />
    <glyph glyph-name="product" unicode="&#x220f;" 
d="M457 20v634h-314v-634q0 -10 -8 -18t-17 -8q-10 0 -18 8t-8 18v687h416v-687q0 -10 -8 -18t-18 -8q-9 0 -17 8t-8 18z" />
    <glyph glyph-name="summation" unicode="&#x2211;" 
 />
    <glyph glyph-name="minus" unicode="&#x2212;" 
d="M107 215q0 8 6.5 14.5t14.5 6.5h344q8 0 14.5 -6.5t6.5 -14.5t-6.5 -14t-14.5 -6h-344q-8 0 -14.5 6t-6.5 14z" />
    <glyph glyph-name="radical" unicode="&#x221a;" 
 />
    <glyph glyph-name="infinity" unicode="&#x221e;" 
d="M339 185l-36 60l-37 -60q-25 -40 -64 -66t-84 -26q-36 0 -64.5 12t-50.5 32t-40 57t-18 88q0 40 13 75.5t36 60.5t55.5 39t68.5 14q45 0 84 -26t64 -66l37 -60l36 60q19 29 45.5 51.5t54 31.5t49.5 9q36 0 64.5 -12t50.5 -32t40 -57t18 -88q0 -40 -13 -75.5t-36 -60.5
t-55.5 -39t-68.5 -14q-45 0 -85 26t-64 66zM372 351l-45 -69l45 -68q25 -38 52 -57t61 -19q31 0 62 14t50 50t19 80q0 29 -9 56.5t-25.5 47t-41 30.5t-55.5 11q-26 0 -54 -14.5t-59 -61.5zM121 427q-46 0 -77.5 -23.5t-43 -58t-11.5 -63.5t11.5 -63t43 -57.5t77.5 -23.5
q63 0 113 76l44 68l-44 69q-48 76 -113 76z" />
    <glyph glyph-name="integral" unicode="&#x222b;" 
d="M272 31v542q0 69 33.5 101t107.5 32h26q9 0 16.5 -8t7.5 -17t-7.5 -16t-16.5 -7h-33q-84 0 -84 -73v-544q0 -69 -33.5 -101t-107.5 -32h-20q-9 0 -16.5 8t-7.5 17t7.5 16t16.5 7h23q45 0 63 13t21.5 31.5t3.5 30.5z" />
    <glyph glyph-name="approxequal" unicode="&#x2248;" 
d="M441 408q7 7 15.5 7t14.5 -6t6 -15t-7 -15q-23 -22 -43.5 -34t-52.5 -12q-21 0 -74 23.5t-78 23.5q-7 0 -23 -3t-44 -30q-6 -5 -14 -5.5t-13 4.5q-6 6 -5.5 15.5t6.5 15.5q29 26 50 36t46 10q21 0 42 -8q9 -3 36.5 -16.5t43.5 -18t29 -4.5q6 0 21.5 3t43.5 29zM441 268
q7 7 15.5 7t14.5 -6t6 -15t-7 -15q-23 -22 -43.5 -34t-52.5 -12q-21 0 -74 23.5t-78 23.5q-7 0 -23 -3t-44 -30q-6 -5 -14 -5.5t-13 4.5q-6 6 -5.5 15.5t6.5 15.5q29 26 50 36t46 10q21 0 42 -8q9 -3 36.5 -16.5t43.5 -18t29 -4.5q6 0 21.5 3t43.5 29z" />
    <glyph glyph-name="notequal" unicode="&#x2260;" 
d="M104 380q0 9 7 17t17 8h191l88 268q3 8 12.5 13t17.5 2q9 -4 13.5 -12.5t1.5 -16.5l-83 -254h102q9 0 17 -8t8 -17t-8 -16t-17 -7h-118l-32 -100h150q9 0 17 -7.5t8 -16.5q0 -10 -8 -17t-17 -7h-166l-94 -289q-3 -9 -12.5 -13.5t-17.5 -2.5q-9 3 -13.5 11.5t-1.5 17.5
l90 276h-128q-10 0 -17 7t-7 17q0 9 7 16.5t17 7.5h143l33 100h-176q-10 0 -17 7t-7 16z" />
    <glyph glyph-name="lessequal" unicode="&#x2264;" 
d="M107 33q0 8 6.5 14.5t14.5 6.5h344q8 0 14.5 -6.5t6.5 -14.5t-6.5 -14t-14.5 -6h-344q-8 0 -14.5 6t-6.5 14zM185 385l218 -220q7 -7 7 -19t-7 -18q-7 -7 -17.5 -6.5t-18.5 7.5l-257 256l254 253q8 7 18.5 7.5t17.5 -6.5q7 -6 6.5 -18t-6.5 -19z" />
    <glyph glyph-name="greaterequal" unicode="&#x2265;" 
d="M493 33q0 -8 -6.5 -14t-14.5 -6h-344q-8 0 -14.5 6t-6.5 14t6.5 14.5t14.5 6.5h344q8 0 14.5 -6.5t6.5 -14.5zM197 165l218 220l-215 217q-6 7 -6.5 19t6.5 18q7 7 17.5 6.5t18.5 -7.5l254 -253l-257 -256q-8 -7 -18.5 -7.5t-17.5 6.5q-7 6 -7 18t7 19z" />
    <glyph glyph-name="lozenge" unicode="&#x25ca;" 
d="M328 0h-56l-169 357l169 358h56l169 -358zM154 357l146 -309l146 309l-146 311z" />
  </font>
</defs>
</svg>
